<?xml version="1.0" encoding="utf-8"?>
<svg xmlns="http://www.w3.org/2000/svg" xmlns:xlink="http://www.w3.org/1999/xlink" width="600" height="400" viewBox="0 0 2400 1600">
<defs>
  <clipPath id="clip8600">
    <rect x="0" y="0" width="2400" height="1600"/>
  </clipPath>
</defs>
<path clip-path="url(#clip8600)" d="
M0 1600 L2400 1600 L2400 0 L0 0  Z
  " fill="#ffffff" fill-rule="evenodd" fill-opacity="1"/>
<defs>
  <clipPath id="clip8601">
    <rect x="480" y="0" width="1681" height="1600"/>
  </clipPath>
</defs>
<path clip-path="url(#clip8600)" d="
M208.77 1487.47 L2352.76 1487.47 L2352.76 47.2441 L208.77 47.2441  Z
  " fill="#ffffff" fill-rule="evenodd" fill-opacity="1"/>
<defs>
  <clipPath id="clip8602">
    <rect x="208" y="47" width="2145" height="1441"/>
  </clipPath>
</defs>
<polyline clip-path="url(#clip8600)" style="stroke:#000000; stroke-width:4; stroke-opacity:1; fill:none" points="
  208.77,1487.47 2352.76,1487.47 
  "/>
<polyline clip-path="url(#clip8600)" style="stroke:#000000; stroke-width:4; stroke-opacity:1; fill:none" points="
  208.77,1487.47 208.77,47.2441 
  "/>
<polyline clip-path="url(#clip8600)" style="stroke:#000000; stroke-width:4; stroke-opacity:1; fill:none" points="
  208.77,1487.47 208.77,1470.19 
  "/>
<polyline clip-path="url(#clip8600)" style="stroke:#000000; stroke-width:4; stroke-opacity:1; fill:none" points="
  423.169,1487.47 423.169,1470.19 
  "/>
<polyline clip-path="url(#clip8600)" style="stroke:#000000; stroke-width:4; stroke-opacity:1; fill:none" points="
  637.568,1487.47 637.568,1470.19 
  "/>
<polyline clip-path="url(#clip8600)" style="stroke:#000000; stroke-width:4; stroke-opacity:1; fill:none" points="
  851.966,1487.47 851.966,1470.19 
  "/>
<polyline clip-path="url(#clip8600)" style="stroke:#000000; stroke-width:4; stroke-opacity:1; fill:none" points="
  1066.36,1487.47 1066.36,1470.19 
  "/>
<polyline clip-path="url(#clip8600)" style="stroke:#000000; stroke-width:4; stroke-opacity:1; fill:none" points="
  1280.76,1487.47 1280.76,1470.19 
  "/>
<polyline clip-path="url(#clip8600)" style="stroke:#000000; stroke-width:4; stroke-opacity:1; fill:none" points="
  1495.16,1487.47 1495.16,1470.19 
  "/>
<polyline clip-path="url(#clip8600)" style="stroke:#000000; stroke-width:4; stroke-opacity:1; fill:none" points="
  1709.56,1487.47 1709.56,1470.19 
  "/>
<polyline clip-path="url(#clip8600)" style="stroke:#000000; stroke-width:4; stroke-opacity:1; fill:none" points="
  1923.96,1487.47 1923.96,1470.19 
  "/>
<polyline clip-path="url(#clip8600)" style="stroke:#000000; stroke-width:4; stroke-opacity:1; fill:none" points="
  2138.36,1487.47 2138.36,1470.19 
  "/>
<polyline clip-path="url(#clip8600)" style="stroke:#000000; stroke-width:4; stroke-opacity:1; fill:none" points="
  2352.76,1487.47 2352.76,1470.19 
  "/>
<polyline clip-path="url(#clip8600)" style="stroke:#000000; stroke-width:4; stroke-opacity:1; fill:none" points="
  208.77,1487.47 234.498,1487.47 
  "/>
<polyline clip-path="url(#clip8600)" style="stroke:#000000; stroke-width:4; stroke-opacity:1; fill:none" points="
  208.77,1281.73 234.498,1281.73 
  "/>
<polyline clip-path="url(#clip8600)" style="stroke:#000000; stroke-width:4; stroke-opacity:1; fill:none" points="
  208.77,1075.98 234.498,1075.98 
  "/>
<polyline clip-path="url(#clip8600)" style="stroke:#000000; stroke-width:4; stroke-opacity:1; fill:none" points="
  208.77,870.233 234.498,870.233 
  "/>
<polyline clip-path="url(#clip8600)" style="stroke:#000000; stroke-width:4; stroke-opacity:1; fill:none" points="
  208.77,664.486 234.498,664.486 
  "/>
<polyline clip-path="url(#clip8600)" style="stroke:#000000; stroke-width:4; stroke-opacity:1; fill:none" points="
  208.77,458.739 234.498,458.739 
  "/>
<polyline clip-path="url(#clip8600)" style="stroke:#000000; stroke-width:4; stroke-opacity:1; fill:none" points="
  208.77,252.991 234.498,252.991 
  "/>
<polyline clip-path="url(#clip8600)" style="stroke:#000000; stroke-width:4; stroke-opacity:1; fill:none" points="
  208.77,47.2441 234.498,47.2441 
  "/>
<g clip-path="url(#clip8600)">
<text style="fill:#000000; fill-opacity:1; font-family:Arial,Helvetica Neue,Helvetica,sans-serif; font-size:48px; text-anchor:middle;" transform="rotate(0, 208.77, 1541.47)" x="208.77" y="1541.47">-1.0</text>
</g>
<g clip-path="url(#clip8600)">
<text style="fill:#000000; fill-opacity:1; font-family:Arial,Helvetica Neue,Helvetica,sans-serif; font-size:48px; text-anchor:middle;" transform="rotate(0, 423.169, 1541.47)" x="423.169" y="1541.47">-0.8</text>
</g>
<g clip-path="url(#clip8600)">
<text style="fill:#000000; fill-opacity:1; font-family:Arial,Helvetica Neue,Helvetica,sans-serif; font-size:48px; text-anchor:middle;" transform="rotate(0, 637.568, 1541.47)" x="637.568" y="1541.47">-0.6</text>
</g>
<g clip-path="url(#clip8600)">
<text style="fill:#000000; fill-opacity:1; font-family:Arial,Helvetica Neue,Helvetica,sans-serif; font-size:48px; text-anchor:middle;" transform="rotate(0, 851.966, 1541.47)" x="851.966" y="1541.47">-0.4</text>
</g>
<g clip-path="url(#clip8600)">
<text style="fill:#000000; fill-opacity:1; font-family:Arial,Helvetica Neue,Helvetica,sans-serif; font-size:48px; text-anchor:middle;" transform="rotate(0, 1066.36, 1541.47)" x="1066.36" y="1541.47">-0.2</text>
</g>
<g clip-path="url(#clip8600)">
<text style="fill:#000000; fill-opacity:1; font-family:Arial,Helvetica Neue,Helvetica,sans-serif; font-size:48px; text-anchor:middle;" transform="rotate(0, 1280.76, 1541.47)" x="1280.76" y="1541.47">0.0</text>
</g>
<g clip-path="url(#clip8600)">
<text style="fill:#000000; fill-opacity:1; font-family:Arial,Helvetica Neue,Helvetica,sans-serif; font-size:48px; text-anchor:middle;" transform="rotate(0, 1495.16, 1541.47)" x="1495.16" y="1541.47">0.2</text>
</g>
<g clip-path="url(#clip8600)">
<text style="fill:#000000; fill-opacity:1; font-family:Arial,Helvetica Neue,Helvetica,sans-serif; font-size:48px; text-anchor:middle;" transform="rotate(0, 1709.56, 1541.47)" x="1709.56" y="1541.47">0.4</text>
</g>
<g clip-path="url(#clip8600)">
<text style="fill:#000000; fill-opacity:1; font-family:Arial,Helvetica Neue,Helvetica,sans-serif; font-size:48px; text-anchor:middle;" transform="rotate(0, 1923.96, 1541.47)" x="1923.96" y="1541.47">0.6</text>
</g>
<g clip-path="url(#clip8600)">
<text style="fill:#000000; fill-opacity:1; font-family:Arial,Helvetica Neue,Helvetica,sans-serif; font-size:48px; text-anchor:middle;" transform="rotate(0, 2138.36, 1541.47)" x="2138.36" y="1541.47">0.8</text>
</g>
<g clip-path="url(#clip8600)">
<text style="fill:#000000; fill-opacity:1; font-family:Arial,Helvetica Neue,Helvetica,sans-serif; font-size:48px; text-anchor:middle;" transform="rotate(0, 2352.76, 1541.47)" x="2352.76" y="1541.47">1.0</text>
</g>
<g clip-path="url(#clip8600)">
<text style="fill:#000000; fill-opacity:1; font-family:Arial,Helvetica Neue,Helvetica,sans-serif; font-size:48px; text-anchor:end;" transform="rotate(0, 184.77, 1504.97)" x="184.77" y="1504.97">-0.15</text>
</g>
<g clip-path="url(#clip8600)">
<text style="fill:#000000; fill-opacity:1; font-family:Arial,Helvetica Neue,Helvetica,sans-serif; font-size:48px; text-anchor:end;" transform="rotate(0, 184.77, 1299.23)" x="184.77" y="1299.23">-0.10</text>
</g>
<g clip-path="url(#clip8600)">
<text style="fill:#000000; fill-opacity:1; font-family:Arial,Helvetica Neue,Helvetica,sans-serif; font-size:48px; text-anchor:end;" transform="rotate(0, 184.77, 1093.48)" x="184.77" y="1093.48">-0.05</text>
</g>
<g clip-path="url(#clip8600)">
<text style="fill:#000000; fill-opacity:1; font-family:Arial,Helvetica Neue,Helvetica,sans-serif; font-size:48px; text-anchor:end;" transform="rotate(0, 184.77, 887.733)" x="184.77" y="887.733">0.00</text>
</g>
<g clip-path="url(#clip8600)">
<text style="fill:#000000; fill-opacity:1; font-family:Arial,Helvetica Neue,Helvetica,sans-serif; font-size:48px; text-anchor:end;" transform="rotate(0, 184.77, 681.986)" x="184.77" y="681.986">0.05</text>
</g>
<g clip-path="url(#clip8600)">
<text style="fill:#000000; fill-opacity:1; font-family:Arial,Helvetica Neue,Helvetica,sans-serif; font-size:48px; text-anchor:end;" transform="rotate(0, 184.77, 476.239)" x="184.77" y="476.239">0.10</text>
</g>
<g clip-path="url(#clip8600)">
<text style="fill:#000000; fill-opacity:1; font-family:Arial,Helvetica Neue,Helvetica,sans-serif; font-size:48px; text-anchor:end;" transform="rotate(0, 184.77, 270.491)" x="184.77" y="270.491">0.15</text>
</g>
<g clip-path="url(#clip8600)">
<text style="fill:#000000; fill-opacity:1; font-family:Arial,Helvetica Neue,Helvetica,sans-serif; font-size:48px; text-anchor:end;" transform="rotate(0, 184.77, 64.7441)" x="184.77" y="64.7441">0.20</text>
</g>
<polyline clip-path="url(#clip8602)" style="stroke:#000000; stroke-width:4; stroke-opacity:1; fill:none" points="
  208.77,47.2441 2352.76,47.2441 
  "/>
<polyline clip-path="url(#clip8602)" style="stroke:#000000; stroke-width:4; stroke-opacity:1; fill:none" points="
  2352.76,1487.47 2352.76,47.2441 
  "/>
<circle clip-path="url(#clip8602)" style="fill:#0000ff; stroke:none; fill-opacity:1" cx="230.21" cy="297.458" r="14"/>
<circle clip-path="url(#clip8602)" style="fill:#ffffff; stroke:none; fill-opacity:1" cx="230.21" cy="297.458" r="10"/>
<circle clip-path="url(#clip8602)" style="fill:#0000ff; stroke:none; fill-opacity:1" cx="251.65" cy="344.055" r="14"/>
<circle clip-path="url(#clip8602)" style="fill:#ffffff; stroke:none; fill-opacity:1" cx="251.65" cy="344.055" r="10"/>
<circle clip-path="url(#clip8602)" style="fill:#0000ff; stroke:none; fill-opacity:1" cx="273.09" cy="396.606" r="14"/>
<circle clip-path="url(#clip8602)" style="fill:#ffffff; stroke:none; fill-opacity:1" cx="273.09" cy="396.606" r="10"/>
<circle clip-path="url(#clip8602)" style="fill:#0000ff; stroke:none; fill-opacity:1" cx="294.53" cy="451.725" r="14"/>
<circle clip-path="url(#clip8602)" style="fill:#ffffff; stroke:none; fill-opacity:1" cx="294.53" cy="451.725" r="10"/>
<circle clip-path="url(#clip8602)" style="fill:#0000ff; stroke:none; fill-opacity:1" cx="315.97" cy="506.239" r="14"/>
<circle clip-path="url(#clip8602)" style="fill:#ffffff; stroke:none; fill-opacity:1" cx="315.97" cy="506.239" r="10"/>
<circle clip-path="url(#clip8602)" style="fill:#0000ff; stroke:none; fill-opacity:1" cx="337.41" cy="557.611" r="14"/>
<circle clip-path="url(#clip8602)" style="fill:#ffffff; stroke:none; fill-opacity:1" cx="337.41" cy="557.611" r="10"/>
<circle clip-path="url(#clip8602)" style="fill:#0000ff; stroke:none; fill-opacity:1" cx="358.849" cy="604.162" r="14"/>
<circle clip-path="url(#clip8602)" style="fill:#ffffff; stroke:none; fill-opacity:1" cx="358.849" cy="604.162" r="10"/>
<circle clip-path="url(#clip8602)" style="fill:#0000ff; stroke:none; fill-opacity:1" cx="380.289" cy="645.058" r="14"/>
<circle clip-path="url(#clip8602)" style="fill:#ffffff; stroke:none; fill-opacity:1" cx="380.289" cy="645.058" r="10"/>
<circle clip-path="url(#clip8602)" style="fill:#0000ff; stroke:none; fill-opacity:1" cx="401.729" cy="680.152" r="14"/>
<circle clip-path="url(#clip8602)" style="fill:#ffffff; stroke:none; fill-opacity:1" cx="401.729" cy="680.152" r="10"/>
<circle clip-path="url(#clip8602)" style="fill:#0000ff; stroke:none; fill-opacity:1" cx="423.169" cy="709.761" r="14"/>
<circle clip-path="url(#clip8602)" style="fill:#ffffff; stroke:none; fill-opacity:1" cx="423.169" cy="709.761" r="10"/>
<circle clip-path="url(#clip8602)" style="fill:#0000ff; stroke:none; fill-opacity:1" cx="444.609" cy="734.465" r="14"/>
<circle clip-path="url(#clip8602)" style="fill:#ffffff; stroke:none; fill-opacity:1" cx="444.609" cy="734.465" r="10"/>
<circle clip-path="url(#clip8602)" style="fill:#0000ff; stroke:none; fill-opacity:1" cx="466.049" cy="754.941" r="14"/>
<circle clip-path="url(#clip8602)" style="fill:#ffffff; stroke:none; fill-opacity:1" cx="466.049" cy="754.941" r="10"/>
<circle clip-path="url(#clip8602)" style="fill:#0000ff; stroke:none; fill-opacity:1" cx="487.489" cy="771.861" r="14"/>
<circle clip-path="url(#clip8602)" style="fill:#ffffff; stroke:none; fill-opacity:1" cx="487.489" cy="771.861" r="10"/>
<circle clip-path="url(#clip8602)" style="fill:#0000ff; stroke:none; fill-opacity:1" cx="508.928" cy="785.83" r="14"/>
<circle clip-path="url(#clip8602)" style="fill:#ffffff; stroke:none; fill-opacity:1" cx="508.928" cy="785.83" r="10"/>
<circle clip-path="url(#clip8602)" style="fill:#0000ff; stroke:none; fill-opacity:1" cx="530.368" cy="797.367" r="14"/>
<circle clip-path="url(#clip8602)" style="fill:#ffffff; stroke:none; fill-opacity:1" cx="530.368" cy="797.367" r="10"/>
<circle clip-path="url(#clip8602)" style="fill:#0000ff; stroke:none; fill-opacity:1" cx="551.808" cy="806.896" r="14"/>
<circle clip-path="url(#clip8602)" style="fill:#ffffff; stroke:none; fill-opacity:1" cx="551.808" cy="806.896" r="10"/>
<circle clip-path="url(#clip8602)" style="fill:#0000ff; stroke:none; fill-opacity:1" cx="573.248" cy="814.755" r="14"/>
<circle clip-path="url(#clip8602)" style="fill:#ffffff; stroke:none; fill-opacity:1" cx="573.248" cy="814.755" r="10"/>
<circle clip-path="url(#clip8602)" style="fill:#0000ff; stroke:none; fill-opacity:1" cx="594.688" cy="821.212" r="14"/>
<circle clip-path="url(#clip8602)" style="fill:#ffffff; stroke:none; fill-opacity:1" cx="594.688" cy="821.212" r="10"/>
<circle clip-path="url(#clip8602)" style="fill:#0000ff; stroke:none; fill-opacity:1" cx="616.128" cy="826.473" r="14"/>
<circle clip-path="url(#clip8602)" style="fill:#ffffff; stroke:none; fill-opacity:1" cx="616.128" cy="826.473" r="10"/>
<circle clip-path="url(#clip8602)" style="fill:#0000ff; stroke:none; fill-opacity:1" cx="637.568" cy="830.697" r="14"/>
<circle clip-path="url(#clip8602)" style="fill:#ffffff; stroke:none; fill-opacity:1" cx="637.568" cy="830.697" r="10"/>
<circle clip-path="url(#clip8602)" style="fill:#0000ff; stroke:none; fill-opacity:1" cx="659.007" cy="834.006" r="14"/>
<circle clip-path="url(#clip8602)" style="fill:#ffffff; stroke:none; fill-opacity:1" cx="659.007" cy="834.006" r="10"/>
<circle clip-path="url(#clip8602)" style="fill:#0000ff; stroke:none; fill-opacity:1" cx="680.447" cy="836.49" r="14"/>
<circle clip-path="url(#clip8602)" style="fill:#ffffff; stroke:none; fill-opacity:1" cx="680.447" cy="836.49" r="10"/>
<circle clip-path="url(#clip8602)" style="fill:#0000ff; stroke:none; fill-opacity:1" cx="701.887" cy="838.213" r="14"/>
<circle clip-path="url(#clip8602)" style="fill:#ffffff; stroke:none; fill-opacity:1" cx="701.887" cy="838.213" r="10"/>
<circle clip-path="url(#clip8602)" style="fill:#0000ff; stroke:none; fill-opacity:1" cx="723.327" cy="839.221" r="14"/>
<circle clip-path="url(#clip8602)" style="fill:#ffffff; stroke:none; fill-opacity:1" cx="723.327" cy="839.221" r="10"/>
<circle clip-path="url(#clip8602)" style="fill:#0000ff; stroke:none; fill-opacity:1" cx="744.767" cy="839.538" r="14"/>
<circle clip-path="url(#clip8602)" style="fill:#ffffff; stroke:none; fill-opacity:1" cx="744.767" cy="839.538" r="10"/>
<circle clip-path="url(#clip8602)" style="fill:#0000ff; stroke:none; fill-opacity:1" cx="766.207" cy="839.172" r="14"/>
<circle clip-path="url(#clip8602)" style="fill:#ffffff; stroke:none; fill-opacity:1" cx="766.207" cy="839.172" r="10"/>
<circle clip-path="url(#clip8602)" style="fill:#0000ff; stroke:none; fill-opacity:1" cx="787.646" cy="838.114" r="14"/>
<circle clip-path="url(#clip8602)" style="fill:#ffffff; stroke:none; fill-opacity:1" cx="787.646" cy="838.114" r="10"/>
<circle clip-path="url(#clip8602)" style="fill:#0000ff; stroke:none; fill-opacity:1" cx="809.086" cy="836.339" r="14"/>
<circle clip-path="url(#clip8602)" style="fill:#ffffff; stroke:none; fill-opacity:1" cx="809.086" cy="836.339" r="10"/>
<circle clip-path="url(#clip8602)" style="fill:#0000ff; stroke:none; fill-opacity:1" cx="830.526" cy="833.799" r="14"/>
<circle clip-path="url(#clip8602)" style="fill:#ffffff; stroke:none; fill-opacity:1" cx="830.526" cy="833.799" r="10"/>
<circle clip-path="url(#clip8602)" style="fill:#0000ff; stroke:none; fill-opacity:1" cx="851.966" cy="830.431" r="14"/>
<circle clip-path="url(#clip8602)" style="fill:#ffffff; stroke:none; fill-opacity:1" cx="851.966" cy="830.431" r="10"/>
<circle clip-path="url(#clip8602)" style="fill:#0000ff; stroke:none; fill-opacity:1" cx="873.406" cy="826.14" r="14"/>
<circle clip-path="url(#clip8602)" style="fill:#ffffff; stroke:none; fill-opacity:1" cx="873.406" cy="826.14" r="10"/>
<circle clip-path="url(#clip8602)" style="fill:#0000ff; stroke:none; fill-opacity:1" cx="894.846" cy="820.805" r="14"/>
<circle clip-path="url(#clip8602)" style="fill:#ffffff; stroke:none; fill-opacity:1" cx="894.846" cy="820.805" r="10"/>
<circle clip-path="url(#clip8602)" style="fill:#0000ff; stroke:none; fill-opacity:1" cx="916.286" cy="814.264" r="14"/>
<circle clip-path="url(#clip8602)" style="fill:#ffffff; stroke:none; fill-opacity:1" cx="916.286" cy="814.264" r="10"/>
<circle clip-path="url(#clip8602)" style="fill:#0000ff; stroke:none; fill-opacity:1" cx="937.725" cy="806.307" r="14"/>
<circle clip-path="url(#clip8602)" style="fill:#ffffff; stroke:none; fill-opacity:1" cx="937.725" cy="806.307" r="10"/>
<circle clip-path="url(#clip8602)" style="fill:#0000ff; stroke:none; fill-opacity:1" cx="959.165" cy="796.665" r="14"/>
<circle clip-path="url(#clip8602)" style="fill:#ffffff; stroke:none; fill-opacity:1" cx="959.165" cy="796.665" r="10"/>
<circle clip-path="url(#clip8602)" style="fill:#0000ff; stroke:none; fill-opacity:1" cx="980.605" cy="784.994" r="14"/>
<circle clip-path="url(#clip8602)" style="fill:#ffffff; stroke:none; fill-opacity:1" cx="980.605" cy="784.994" r="10"/>
<circle clip-path="url(#clip8602)" style="fill:#0000ff; stroke:none; fill-opacity:1" cx="1002.05" cy="770.863" r="14"/>
<circle clip-path="url(#clip8602)" style="fill:#ffffff; stroke:none; fill-opacity:1" cx="1002.05" cy="770.863" r="10"/>
<circle clip-path="url(#clip8602)" style="fill:#0000ff; stroke:none; fill-opacity:1" cx="1023.48" cy="753.748" r="14"/>
<circle clip-path="url(#clip8602)" style="fill:#ffffff; stroke:none; fill-opacity:1" cx="1023.48" cy="753.748" r="10"/>
<circle clip-path="url(#clip8602)" style="fill:#0000ff; stroke:none; fill-opacity:1" cx="1044.92" cy="733.034" r="14"/>
<circle clip-path="url(#clip8602)" style="fill:#ffffff; stroke:none; fill-opacity:1" cx="1044.92" cy="733.034" r="10"/>
<circle clip-path="url(#clip8602)" style="fill:#0000ff; stroke:none; fill-opacity:1" cx="1066.36" cy="708.043" r="14"/>
<circle clip-path="url(#clip8602)" style="fill:#ffffff; stroke:none; fill-opacity:1" cx="1066.36" cy="708.043" r="10"/>
<circle clip-path="url(#clip8602)" style="fill:#0000ff; stroke:none; fill-opacity:1" cx="1087.8" cy="678.089" r="14"/>
<circle clip-path="url(#clip8602)" style="fill:#ffffff; stroke:none; fill-opacity:1" cx="1087.8" cy="678.089" r="10"/>
<circle clip-path="url(#clip8602)" style="fill:#0000ff; stroke:none; fill-opacity:1" cx="1109.24" cy="642.592" r="14"/>
<circle clip-path="url(#clip8602)" style="fill:#ffffff; stroke:none; fill-opacity:1" cx="1109.24" cy="642.592" r="10"/>
<circle clip-path="url(#clip8602)" style="fill:#0000ff; stroke:none; fill-opacity:1" cx="1130.68" cy="601.24" r="14"/>
<circle clip-path="url(#clip8602)" style="fill:#ffffff; stroke:none; fill-opacity:1" cx="1130.68" cy="601.24" r="10"/>
<circle clip-path="url(#clip8602)" style="fill:#0000ff; stroke:none; fill-opacity:1" cx="1152.12" cy="554.209" r="14"/>
<circle clip-path="url(#clip8602)" style="fill:#ffffff; stroke:none; fill-opacity:1" cx="1152.12" cy="554.209" r="10"/>
<circle clip-path="url(#clip8602)" style="fill:#0000ff; stroke:none; fill-opacity:1" cx="1173.56" cy="502.386" r="14"/>
<circle clip-path="url(#clip8602)" style="fill:#ffffff; stroke:none; fill-opacity:1" cx="1173.56" cy="502.386" r="10"/>
<circle clip-path="url(#clip8602)" style="fill:#0000ff; stroke:none; fill-opacity:1" cx="1195" cy="447.546" r="14"/>
<circle clip-path="url(#clip8602)" style="fill:#ffffff; stroke:none; fill-opacity:1" cx="1195" cy="447.546" r="10"/>
<circle clip-path="url(#clip8602)" style="fill:#0000ff; stroke:none; fill-opacity:1" cx="1216.44" cy="392.368" r="14"/>
<circle clip-path="url(#clip8602)" style="fill:#ffffff; stroke:none; fill-opacity:1" cx="1216.44" cy="392.368" r="10"/>
<circle clip-path="url(#clip8602)" style="fill:#0000ff; stroke:none; fill-opacity:1" cx="1237.88" cy="340.221" r="14"/>
<circle clip-path="url(#clip8602)" style="fill:#ffffff; stroke:none; fill-opacity:1" cx="1237.88" cy="340.221" r="10"/>
<circle clip-path="url(#clip8602)" style="fill:#0000ff; stroke:none; fill-opacity:1" cx="1259.32" cy="294.718" r="14"/>
<circle clip-path="url(#clip8602)" style="fill:#ffffff; stroke:none; fill-opacity:1" cx="1259.32" cy="294.718" r="10"/>
<circle clip-path="url(#clip8602)" style="fill:#0000ff; stroke:none; fill-opacity:1" cx="1280.76" cy="259.133" r="14"/>
<circle clip-path="url(#clip8602)" style="fill:#ffffff; stroke:none; fill-opacity:1" cx="1280.76" cy="259.133" r="10"/>
<circle clip-path="url(#clip8602)" style="fill:#0000ff; stroke:none; fill-opacity:1" cx="1302.2" cy="235.857" r="14"/>
<circle clip-path="url(#clip8602)" style="fill:#ffffff; stroke:none; fill-opacity:1" cx="1302.2" cy="235.857" r="10"/>
<circle clip-path="url(#clip8602)" style="fill:#0000ff; stroke:none; fill-opacity:1" cx="1323.64" cy="226.049" r="14"/>
<circle clip-path="url(#clip8602)" style="fill:#ffffff; stroke:none; fill-opacity:1" cx="1323.64" cy="226.049" r="10"/>
<circle clip-path="url(#clip8602)" style="fill:#0000ff; stroke:none; fill-opacity:1" cx="1345.08" cy="229.557" r="14"/>
<circle clip-path="url(#clip8602)" style="fill:#ffffff; stroke:none; fill-opacity:1" cx="1345.08" cy="229.557" r="10"/>
<circle clip-path="url(#clip8602)" style="fill:#0000ff; stroke:none; fill-opacity:1" cx="1366.52" cy="245.058" r="14"/>
<circle clip-path="url(#clip8602)" style="fill:#ffffff; stroke:none; fill-opacity:1" cx="1366.52" cy="245.058" r="10"/>
<circle clip-path="url(#clip8602)" style="fill:#0000ff; stroke:none; fill-opacity:1" cx="1387.96" cy="270.34" r="14"/>
<circle clip-path="url(#clip8602)" style="fill:#ffffff; stroke:none; fill-opacity:1" cx="1387.96" cy="270.34" r="10"/>
<circle clip-path="url(#clip8602)" style="fill:#0000ff; stroke:none; fill-opacity:1" cx="1409.4" cy="302.635" r="14"/>
<circle clip-path="url(#clip8602)" style="fill:#ffffff; stroke:none; fill-opacity:1" cx="1409.4" cy="302.635" r="10"/>
<circle clip-path="url(#clip8602)" style="fill:#0000ff; stroke:none; fill-opacity:1" cx="1430.84" cy="338.954" r="14"/>
<circle clip-path="url(#clip8602)" style="fill:#ffffff; stroke:none; fill-opacity:1" cx="1430.84" cy="338.954" r="10"/>
<circle clip-path="url(#clip8602)" style="fill:#0000ff; stroke:none; fill-opacity:1" cx="1452.28" cy="376.382" r="14"/>
<circle clip-path="url(#clip8602)" style="fill:#ffffff; stroke:none; fill-opacity:1" cx="1452.28" cy="376.382" r="10"/>
<circle clip-path="url(#clip8602)" style="fill:#0000ff; stroke:none; fill-opacity:1" cx="1473.72" cy="412.308" r="14"/>
<circle clip-path="url(#clip8602)" style="fill:#ffffff; stroke:none; fill-opacity:1" cx="1473.72" cy="412.308" r="10"/>
<circle clip-path="url(#clip8602)" style="fill:#0000ff; stroke:none; fill-opacity:1" cx="1495.16" cy="444.564" r="14"/>
<circle clip-path="url(#clip8602)" style="fill:#ffffff; stroke:none; fill-opacity:1" cx="1495.16" cy="444.564" r="10"/>
<circle clip-path="url(#clip8602)" style="fill:#0000ff; stroke:none; fill-opacity:1" cx="1516.6" cy="471.473" r="14"/>
<circle clip-path="url(#clip8602)" style="fill:#ffffff; stroke:none; fill-opacity:1" cx="1516.6" cy="471.473" r="10"/>
<circle clip-path="url(#clip8602)" style="fill:#0000ff; stroke:none; fill-opacity:1" cx="1538.04" cy="491.823" r="14"/>
<circle clip-path="url(#clip8602)" style="fill:#ffffff; stroke:none; fill-opacity:1" cx="1538.04" cy="491.823" r="10"/>
<circle clip-path="url(#clip8602)" style="fill:#0000ff; stroke:none; fill-opacity:1" cx="1559.48" cy="504.787" r="14"/>
<circle clip-path="url(#clip8602)" style="fill:#ffffff; stroke:none; fill-opacity:1" cx="1559.48" cy="504.787" r="10"/>
<circle clip-path="url(#clip8602)" style="fill:#0000ff; stroke:none; fill-opacity:1" cx="1580.92" cy="509.844" r="14"/>
<circle clip-path="url(#clip8602)" style="fill:#ffffff; stroke:none; fill-opacity:1" cx="1580.92" cy="509.844" r="10"/>
<circle clip-path="url(#clip8602)" style="fill:#0000ff; stroke:none; fill-opacity:1" cx="1602.36" cy="506.712" r="14"/>
<circle clip-path="url(#clip8602)" style="fill:#ffffff; stroke:none; fill-opacity:1" cx="1602.36" cy="506.712" r="10"/>
<circle clip-path="url(#clip8602)" style="fill:#0000ff; stroke:none; fill-opacity:1" cx="1623.8" cy="495.33" r="14"/>
<circle clip-path="url(#clip8602)" style="fill:#ffffff; stroke:none; fill-opacity:1" cx="1623.8" cy="495.33" r="10"/>
<circle clip-path="url(#clip8602)" style="fill:#0000ff; stroke:none; fill-opacity:1" cx="1645.24" cy="475.9" r="14"/>
<circle clip-path="url(#clip8602)" style="fill:#ffffff; stroke:none; fill-opacity:1" cx="1645.24" cy="475.9" r="10"/>
<circle clip-path="url(#clip8602)" style="fill:#0000ff; stroke:none; fill-opacity:1" cx="1666.68" cy="448.997" r="14"/>
<circle clip-path="url(#clip8602)" style="fill:#ffffff; stroke:none; fill-opacity:1" cx="1666.68" cy="448.997" r="10"/>
<circle clip-path="url(#clip8602)" style="fill:#0000ff; stroke:none; fill-opacity:1" cx="1688.12" cy="415.747" r="14"/>
<circle clip-path="url(#clip8602)" style="fill:#ffffff; stroke:none; fill-opacity:1" cx="1688.12" cy="415.747" r="10"/>
<circle clip-path="url(#clip8602)" style="fill:#0000ff; stroke:none; fill-opacity:1" cx="1709.56" cy="378.025" r="14"/>
<circle clip-path="url(#clip8602)" style="fill:#ffffff; stroke:none; fill-opacity:1" cx="1709.56" cy="378.025" r="10"/>
<circle clip-path="url(#clip8602)" style="fill:#0000ff; stroke:none; fill-opacity:1" cx="1731" cy="338.617" r="14"/>
<circle clip-path="url(#clip8602)" style="fill:#ffffff; stroke:none; fill-opacity:1" cx="1731" cy="338.617" r="10"/>
<circle clip-path="url(#clip8602)" style="fill:#0000ff; stroke:none; fill-opacity:1" cx="1752.44" cy="301.195" r="14"/>
<circle clip-path="url(#clip8602)" style="fill:#ffffff; stroke:none; fill-opacity:1" cx="1752.44" cy="301.195" r="10"/>
<circle clip-path="url(#clip8602)" style="fill:#0000ff; stroke:none; fill-opacity:1" cx="1773.88" cy="269.998" r="14"/>
<circle clip-path="url(#clip8602)" style="fill:#ffffff; stroke:none; fill-opacity:1" cx="1773.88" cy="269.998" r="10"/>
<circle clip-path="url(#clip8602)" style="fill:#0000ff; stroke:none; fill-opacity:1" cx="1795.32" cy="249.131" r="14"/>
<circle clip-path="url(#clip8602)" style="fill:#ffffff; stroke:none; fill-opacity:1" cx="1795.32" cy="249.131" r="10"/>
<circle clip-path="url(#clip8602)" style="fill:#0000ff; stroke:none; fill-opacity:1" cx="1816.76" cy="241.632" r="14"/>
<circle clip-path="url(#clip8602)" style="fill:#ffffff; stroke:none; fill-opacity:1" cx="1816.76" cy="241.632" r="10"/>
<circle clip-path="url(#clip8602)" style="fill:#0000ff; stroke:none; fill-opacity:1" cx="1838.2" cy="248.642" r="14"/>
<circle clip-path="url(#clip8602)" style="fill:#ffffff; stroke:none; fill-opacity:1" cx="1838.2" cy="248.642" r="10"/>
<circle clip-path="url(#clip8602)" style="fill:#0000ff; stroke:none; fill-opacity:1" cx="1859.64" cy="269.066" r="14"/>
<circle clip-path="url(#clip8602)" style="fill:#ffffff; stroke:none; fill-opacity:1" cx="1859.64" cy="269.066" r="10"/>
<circle clip-path="url(#clip8602)" style="fill:#0000ff; stroke:none; fill-opacity:1" cx="1881.08" cy="299.903" r="14"/>
<circle clip-path="url(#clip8602)" style="fill:#ffffff; stroke:none; fill-opacity:1" cx="1881.08" cy="299.903" r="10"/>
<circle clip-path="url(#clip8602)" style="fill:#0000ff; stroke:none; fill-opacity:1" cx="1902.52" cy="337.073" r="14"/>
<circle clip-path="url(#clip8602)" style="fill:#ffffff; stroke:none; fill-opacity:1" cx="1902.52" cy="337.073" r="10"/>
<circle clip-path="url(#clip8602)" style="fill:#0000ff; stroke:none; fill-opacity:1" cx="1923.96" cy="376.352" r="14"/>
<circle clip-path="url(#clip8602)" style="fill:#ffffff; stroke:none; fill-opacity:1" cx="1923.96" cy="376.352" r="10"/>
<circle clip-path="url(#clip8602)" style="fill:#0000ff; stroke:none; fill-opacity:1" cx="1945.4" cy="414.073" r="14"/>
<circle clip-path="url(#clip8602)" style="fill:#ffffff; stroke:none; fill-opacity:1" cx="1945.4" cy="414.073" r="10"/>
<circle clip-path="url(#clip8602)" style="fill:#0000ff; stroke:none; fill-opacity:1" cx="1966.84" cy="447.452" r="14"/>
<circle clip-path="url(#clip8602)" style="fill:#ffffff; stroke:none; fill-opacity:1" cx="1966.84" cy="447.452" r="10"/>
<circle clip-path="url(#clip8602)" style="fill:#0000ff; stroke:none; fill-opacity:1" cx="1988.28" cy="474.612" r="14"/>
<circle clip-path="url(#clip8602)" style="fill:#ffffff; stroke:none; fill-opacity:1" cx="1988.28" cy="474.612" r="10"/>
<circle clip-path="url(#clip8602)" style="fill:#0000ff; stroke:none; fill-opacity:1" cx="2009.72" cy="494.431" r="14"/>
<circle clip-path="url(#clip8602)" style="fill:#ffffff; stroke:none; fill-opacity:1" cx="2009.72" cy="494.431" r="10"/>
<circle clip-path="url(#clip8602)" style="fill:#0000ff; stroke:none; fill-opacity:1" cx="2031.16" cy="506.337" r="14"/>
<circle clip-path="url(#clip8602)" style="fill:#ffffff; stroke:none; fill-opacity:1" cx="2031.16" cy="506.337" r="10"/>
<circle clip-path="url(#clip8602)" style="fill:#0000ff; stroke:none; fill-opacity:1" cx="2052.6" cy="510.134" r="14"/>
<circle clip-path="url(#clip8602)" style="fill:#ffffff; stroke:none; fill-opacity:1" cx="2052.6" cy="510.134" r="10"/>
<circle clip-path="url(#clip8602)" style="fill:#0000ff; stroke:none; fill-opacity:1" cx="2074.04" cy="505.887" r="14"/>
<circle clip-path="url(#clip8602)" style="fill:#ffffff; stroke:none; fill-opacity:1" cx="2074.04" cy="505.887" r="10"/>
<circle clip-path="url(#clip8602)" style="fill:#0000ff; stroke:none; fill-opacity:1" cx="2095.48" cy="493.874" r="14"/>
<circle clip-path="url(#clip8602)" style="fill:#ffffff; stroke:none; fill-opacity:1" cx="2095.48" cy="493.874" r="10"/>
<circle clip-path="url(#clip8602)" style="fill:#0000ff; stroke:none; fill-opacity:1" cx="2116.92" cy="474.598" r="14"/>
<circle clip-path="url(#clip8602)" style="fill:#ffffff; stroke:none; fill-opacity:1" cx="2116.92" cy="474.598" r="10"/>
<circle clip-path="url(#clip8602)" style="fill:#0000ff; stroke:none; fill-opacity:1" cx="2138.36" cy="448.837" r="14"/>
<circle clip-path="url(#clip8602)" style="fill:#ffffff; stroke:none; fill-opacity:1" cx="2138.36" cy="448.837" r="10"/>
<circle clip-path="url(#clip8602)" style="fill:#0000ff; stroke:none; fill-opacity:1" cx="2159.8" cy="417.711" r="14"/>
<circle clip-path="url(#clip8602)" style="fill:#ffffff; stroke:none; fill-opacity:1" cx="2159.8" cy="417.711" r="10"/>
<circle clip-path="url(#clip8602)" style="fill:#0000ff; stroke:none; fill-opacity:1" cx="2181.24" cy="382.742" r="14"/>
<circle clip-path="url(#clip8602)" style="fill:#ffffff; stroke:none; fill-opacity:1" cx="2181.24" cy="382.742" r="10"/>
<circle clip-path="url(#clip8602)" style="fill:#0000ff; stroke:none; fill-opacity:1" cx="2202.68" cy="345.866" r="14"/>
<circle clip-path="url(#clip8602)" style="fill:#ffffff; stroke:none; fill-opacity:1" cx="2202.68" cy="345.866" r="10"/>
<circle clip-path="url(#clip8602)" style="fill:#0000ff; stroke:none; fill-opacity:1" cx="2224.12" cy="309.381" r="14"/>
<circle clip-path="url(#clip8602)" style="fill:#ffffff; stroke:none; fill-opacity:1" cx="2224.12" cy="309.381" r="10"/>
<circle clip-path="url(#clip8602)" style="fill:#0000ff; stroke:none; fill-opacity:1" cx="2245.56" cy="275.822" r="14"/>
<circle clip-path="url(#clip8602)" style="fill:#ffffff; stroke:none; fill-opacity:1" cx="2245.56" cy="275.822" r="10"/>
<circle clip-path="url(#clip8602)" style="fill:#0000ff; stroke:none; fill-opacity:1" cx="2267" cy="247.785" r="14"/>
<circle clip-path="url(#clip8602)" style="fill:#ffffff; stroke:none; fill-opacity:1" cx="2267" cy="247.785" r="10"/>
<circle clip-path="url(#clip8602)" style="fill:#0000ff; stroke:none; fill-opacity:1" cx="2288.44" cy="227.724" r="14"/>
<circle clip-path="url(#clip8602)" style="fill:#ffffff; stroke:none; fill-opacity:1" cx="2288.44" cy="227.724" r="10"/>
<circle clip-path="url(#clip8602)" style="fill:#0000ff; stroke:none; fill-opacity:1" cx="2309.88" cy="217.742" r="14"/>
<circle clip-path="url(#clip8602)" style="fill:#ffffff; stroke:none; fill-opacity:1" cx="2309.88" cy="217.742" r="10"/>
<circle clip-path="url(#clip8602)" style="fill:#0000ff; stroke:none; fill-opacity:1" cx="2331.32" cy="219.389" r="14"/>
<circle clip-path="url(#clip8602)" style="fill:#ffffff; stroke:none; fill-opacity:1" cx="2331.32" cy="219.389" r="10"/>
<circle clip-path="url(#clip8602)" style="fill:#0000ff; stroke:none; fill-opacity:1" cx="2352.76" cy="233.465" r="14"/>
<circle clip-path="url(#clip8602)" style="fill:#ffffff; stroke:none; fill-opacity:1" cx="2352.76" cy="233.465" r="10"/>
<polyline clip-path="url(#clip8602)" style="stroke:#ff0000; stroke-width:4; stroke-opacity:1; fill:none" points="
  208.77,258.406 230.21,273.755 251.65,298.693 273.09,335.372 294.53,385.254 315.97,448.202 337.41,521.78 358.849,601.102 380.289,679.461 401.729,749.683 
  423.169,805.771 444.609,844.278 466.049,864.901 487.489,870.188 508.928,864.554 530.368,853.079 551.808,840.452 573.248,830.294 594.688,824.859 616.128,825.014 
  637.568,830.375 659.007,839.539 680.447,850.393 701.887,860.515 723.327,867.659 744.767,870.233 766.207,867.659 787.646,860.515 809.086,850.393 830.526,839.539 
  851.966,830.375 873.406,825.014 894.846,824.859 916.286,830.294 937.725,840.452 959.165,853.079 980.605,864.554 1002.05,870.188 1023.48,864.901 1044.92,844.278 
  1066.36,805.771 1087.8,749.683 1109.24,679.461 1130.68,601.102 1152.12,521.78 1173.56,448.202 1195,385.254 1216.44,335.372 1237.88,298.693 1259.32,273.755 
  1280.76,258.406 1302.2,250.593 1323.64,248.888 1345.08,252.665 1366.52,261.997 1387.96,277.323 1409.4,299.002 1430.84,326.876 1452.28,359.967 1473.72,396.42 
  1495.16,433.69 1516.6,468.919 1538.04,499.345 1559.48,522.606 1580.92,536.874 1602.36,540.834 1623.8,533.6 1645.24,514.707 1666.68,484.267 1688.12,443.302 
  1709.56,394.179 1731,340.922 1752.44,289.146 1773.88,245.424 1795.32,216.081 1816.76,205.734 1838.2,216.081 1859.64,245.424 1881.08,289.146 1902.52,340.922 
  1923.96,394.179 1945.4,443.302 1966.84,484.267 1988.28,514.707 2009.72,533.6 2031.16,540.834 2052.6,536.874 2074.04,522.606 2095.48,499.345 2116.92,468.919 
  2138.36,433.69 2159.8,396.42 2181.24,359.967 2202.68,326.876 2224.12,299.002 2245.56,277.323 2267,261.997 2288.44,252.665 2309.88,248.888 2331.32,250.593 
  2352.76,258.406 
  "/>
<polyline clip-path="url(#clip8602)" style="stroke:#000000; stroke-width:4; stroke-opacity:1; fill:none" stroke-dasharray="16, 10" points="
  208.77,1157.12 230.21,1129.76 251.65,1084.57 273.09,1023.99 294.53,953.274 315.97,879.406 337.41,809.539 358.849,749.534 380.289,703.061 401.729,671.389 
  423.169,653.722 444.609,647.849 466.049,650.845 487.489,659.68 508.928,671.651 530.368,684.618 551.808,697.073 573.248,708.101 594.688,717.269 616.128,724.498 
  637.568,729.93 659.007,733.826 680.447,736.478 701.887,738.157 723.327,739.077 744.767,739.372 766.207,739.086 787.646,738.174 809.086,736.5 830.526,733.849 
  851.966,729.947 873.406,724.496 894.846,717.234 916.286,708.014 937.725,696.918 959.165,684.379 980.605,671.324 1002.05,659.273 1023.48,650.394 1044.92,647.422 
  1066.36,653.43 1087.8,671.401 1109.24,703.615 1130.68,750.945 1152.12,812.209 1173.56,883.815 1195,959.952 1216.44,1033.44 1237.88,1097.14 1259.32,1145.46 
  1280.76,1175.38 1302.2,1186.6 1323.64,1180.84 1345.08,1160.76 1366.52,1129.12 1387.96,1088.45 1409.4,1041.12 1430.84,989.663 1452.28,936.889 1473.72,885.73 
  1495.16,838.969 1516.6,798.943 1538.04,767.408 1559.48,745.601 1580.92,734.431 1602.36,734.713 1623.8,747.336 1645.24,773.245 1666.68,813.157 1688.12,866.974 
  1709.56,932.918 1731,1006.63 1752.44,1080.71 1773.88,1145.22 1795.32,1189.61 1816.76,1205.63 1838.2,1190.18 1859.64,1146.36 1881.08,1082.42 1902.52,1008.89 
  1923.96,935.711 1945.4,870.261 1966.84,816.872 1988.28,777.288 2009.72,751.566 2031.16,738.932 2052.6,738.374 2074.04,748.922 2095.48,769.654 2116.92,799.544 
  2138.36,837.225 2159.8,880.824 2181.24,927.937 2202.68,975.839 2224.12,1021.85 2245.56,1063.76 2267,1100 2288.44,1129.56 2309.88,1151.52 2331.32,1164.64 
  2352.76,1167.14 
  "/>
<path clip-path="url(#clip8600)" d="
M280.77 1343.47 L673.306 1343.47 L673.306 1101.55 L280.77 1101.55  Z
  " fill="#ffffff" fill-rule="evenodd" fill-opacity="1"/>
<polyline clip-path="url(#clip8600)" style="stroke:#000000; stroke-width:4; stroke-opacity:1; fill:none" points="
  280.77,1343.47 673.306,1343.47 673.306,1101.55 280.77,1101.55 280.77,1343.47 
  "/>
<circle clip-path="url(#clip8600)" style="fill:#0000ff; stroke:none; fill-opacity:1" cx="388.77" cy="1162.03" r="25"/>
<circle clip-path="url(#clip8600)" style="fill:#ffffff; stroke:none; fill-opacity:1" cx="388.77" cy="1162.03" r="21"/>
<g clip-path="url(#clip8600)">
<text style="fill:#000000; fill-opacity:1; font-family:Symbol; font-size:52px; text-anchor:start;" transform="rotate(0, 472.77, 1169.94)" x="472.77" y="1169.94">Ψ</text>
</g>
<g clip-path="url(#clip8600)">
<text style="fill:#000000; fill-opacity:1; font-family:Arial,Helvetica Neue,Helvetica,sans-serif; font-size:38px; text-anchor:start;" transform="rotate(0, 513.963, 1183.57)" x="513.963" y="1183.57">i</text>
</g>
<polyline clip-path="url(#clip8600)" style="stroke:#ff0000; stroke-width:4; stroke-opacity:1; fill:none" points="
  304.77,1222.51 448.77,1222.51 
  "/>
<g clip-path="url(#clip8600)">
<text style="fill:#000000; fill-opacity:1; font-family:Symbol; font-size:52px; text-anchor:start;" transform="rotate(0, 472.77, 1230.42)" x="472.77" y="1230.42">Ψ</text>
</g>
<g clip-path="url(#clip8600)">
<text style="fill:#000000; fill-opacity:1; font-family:Arial,Helvetica Neue,Helvetica,sans-serif; font-size:38px; text-anchor:start;" transform="rotate(0, 513.963, 1244.05)" x="513.963" y="1244.05">0</text>
</g>
<polyline clip-path="url(#clip8600)" style="stroke:#000000; stroke-width:4; stroke-opacity:1; fill:none" stroke-dasharray="16, 10" points="
  304.77,1282.99 448.77,1282.99 
  "/>
<g clip-path="url(#clip8600)">
<text style="fill:#000000; fill-opacity:1; font-family:Arial,Helvetica Neue,Helvetica,sans-serif; font-size:48px; text-anchor:start;" transform="rotate(0, 472.77, 1300.49)" x="472.77" y="1300.49">V/1000</text>
</g>
</svg>
