<?xml version="1.0" encoding="utf-8"?>
<svg xmlns="http://www.w3.org/2000/svg" xmlns:xlink="http://www.w3.org/1999/xlink" width="600" height="400" viewBox="0 0 2400 1600">
<defs>
  <clipPath id="clip2500">
    <rect x="0" y="0" width="2000" height="2000"/>
  </clipPath>
</defs>
<defs>
  <clipPath id="clip2501">
    <rect x="0" y="0" width="2400" height="1600"/>
  </clipPath>
</defs>
<polygon clip-path="url(#clip2501)" points="
0,1600 2400,1600 2400,0 0,0 
  " fill="#ffffff" fill-rule="evenodd" fill-opacity="1"/>
<defs>
  <clipPath id="clip2502">
    <rect x="480" y="0" width="1681" height="1600"/>
  </clipPath>
</defs>
<polygon clip-path="url(#clip2501)" points="
224.386,1440.48 2321.26,1440.48 2321.26,47.2441 224.386,47.2441 
  " fill="#ffffff" fill-rule="evenodd" fill-opacity="1"/>
<defs>
  <clipPath id="clip2503">
    <rect x="224" y="47" width="2098" height="1394"/>
  </clipPath>
</defs>
<polyline clip-path="url(#clip2503)" style="stroke:#000000; stroke-width:2; stroke-opacity:0.1; fill:none" points="
  224.386,1440.48 224.386,47.2441 
  "/>
<polyline clip-path="url(#clip2503)" style="stroke:#000000; stroke-width:2; stroke-opacity:0.1; fill:none" points="
  643.761,1440.48 643.761,47.2441 
  "/>
<polyline clip-path="url(#clip2503)" style="stroke:#000000; stroke-width:2; stroke-opacity:0.1; fill:none" points="
  1063.14,1440.48 1063.14,47.2441 
  "/>
<polyline clip-path="url(#clip2503)" style="stroke:#000000; stroke-width:2; stroke-opacity:0.1; fill:none" points="
  1482.51,1440.48 1482.51,47.2441 
  "/>
<polyline clip-path="url(#clip2503)" style="stroke:#000000; stroke-width:2; stroke-opacity:0.1; fill:none" points="
  1901.89,1440.48 1901.89,47.2441 
  "/>
<polyline clip-path="url(#clip2503)" style="stroke:#000000; stroke-width:2; stroke-opacity:0.1; fill:none" points="
  2321.26,1440.48 2321.26,47.2441 
  "/>
<polyline clip-path="url(#clip2503)" style="stroke:#000000; stroke-width:2; stroke-opacity:0.1; fill:none" points="
  224.386,1315.75 2321.26,1315.75 
  "/>
<polyline clip-path="url(#clip2503)" style="stroke:#000000; stroke-width:2; stroke-opacity:0.1; fill:none" points="
  224.386,966.298 2321.26,966.298 
  "/>
<polyline clip-path="url(#clip2503)" style="stroke:#000000; stroke-width:2; stroke-opacity:0.1; fill:none" points="
  224.386,616.847 2321.26,616.847 
  "/>
<polyline clip-path="url(#clip2503)" style="stroke:#000000; stroke-width:2; stroke-opacity:0.1; fill:none" points="
  224.386,267.396 2321.26,267.396 
  "/>
<polyline clip-path="url(#clip2501)" style="stroke:#000000; stroke-width:4; stroke-opacity:1; fill:none" points="
  224.386,1440.48 2321.26,1440.48 
  "/>
<polyline clip-path="url(#clip2501)" style="stroke:#000000; stroke-width:4; stroke-opacity:1; fill:none" points="
  224.386,1440.48 224.386,47.2441 
  "/>
<polyline clip-path="url(#clip2501)" style="stroke:#000000; stroke-width:4; stroke-opacity:1; fill:none" points="
  224.386,1440.48 224.386,1419.58 
  "/>
<polyline clip-path="url(#clip2501)" style="stroke:#000000; stroke-width:4; stroke-opacity:1; fill:none" points="
  643.761,1440.48 643.761,1419.58 
  "/>
<polyline clip-path="url(#clip2501)" style="stroke:#000000; stroke-width:4; stroke-opacity:1; fill:none" points="
  1063.14,1440.48 1063.14,1419.58 
  "/>
<polyline clip-path="url(#clip2501)" style="stroke:#000000; stroke-width:4; stroke-opacity:1; fill:none" points="
  1482.51,1440.48 1482.51,1419.58 
  "/>
<polyline clip-path="url(#clip2501)" style="stroke:#000000; stroke-width:4; stroke-opacity:1; fill:none" points="
  1901.89,1440.48 1901.89,1419.58 
  "/>
<polyline clip-path="url(#clip2501)" style="stroke:#000000; stroke-width:4; stroke-opacity:1; fill:none" points="
  2321.26,1440.48 2321.26,1419.58 
  "/>
<polyline clip-path="url(#clip2501)" style="stroke:#000000; stroke-width:4; stroke-opacity:1; fill:none" points="
  224.386,1315.75 255.839,1315.75 
  "/>
<polyline clip-path="url(#clip2501)" style="stroke:#000000; stroke-width:4; stroke-opacity:1; fill:none" points="
  224.386,966.298 255.839,966.298 
  "/>
<polyline clip-path="url(#clip2501)" style="stroke:#000000; stroke-width:4; stroke-opacity:1; fill:none" points="
  224.386,616.847 255.839,616.847 
  "/>
<polyline clip-path="url(#clip2501)" style="stroke:#000000; stroke-width:4; stroke-opacity:1; fill:none" points="
  224.386,267.396 255.839,267.396 
  "/>
<g clip-path="url(#clip2501)">
<text style="fill:#000000; fill-opacity:1; font-family:Arial,Helvetica Neue,Helvetica,sans-serif; font-size:48px; text-anchor:middle;" transform="rotate(0, 224.386, 1494.48)" x="224.386" y="1494.48">0.00</text>
</g>
<g clip-path="url(#clip2501)">
<text style="fill:#000000; fill-opacity:1; font-family:Arial,Helvetica Neue,Helvetica,sans-serif; font-size:48px; text-anchor:middle;" transform="rotate(0, 643.761, 1494.48)" x="643.761" y="1494.48">0.02</text>
</g>
<g clip-path="url(#clip2501)">
<text style="fill:#000000; fill-opacity:1; font-family:Arial,Helvetica Neue,Helvetica,sans-serif; font-size:48px; text-anchor:middle;" transform="rotate(0, 1063.14, 1494.48)" x="1063.14" y="1494.48">0.04</text>
</g>
<g clip-path="url(#clip2501)">
<text style="fill:#000000; fill-opacity:1; font-family:Arial,Helvetica Neue,Helvetica,sans-serif; font-size:48px; text-anchor:middle;" transform="rotate(0, 1482.51, 1494.48)" x="1482.51" y="1494.48">0.06</text>
</g>
<g clip-path="url(#clip2501)">
<text style="fill:#000000; fill-opacity:1; font-family:Arial,Helvetica Neue,Helvetica,sans-serif; font-size:48px; text-anchor:middle;" transform="rotate(0, 1901.89, 1494.48)" x="1901.89" y="1494.48">0.08</text>
</g>
<g clip-path="url(#clip2501)">
<text style="fill:#000000; fill-opacity:1; font-family:Arial,Helvetica Neue,Helvetica,sans-serif; font-size:48px; text-anchor:middle;" transform="rotate(0, 2321.26, 1494.48)" x="2321.26" y="1494.48">0.10</text>
</g>
<g clip-path="url(#clip2501)">
<text style="fill:#000000; fill-opacity:1; font-family:Arial,Helvetica Neue,Helvetica,sans-serif; font-size:48px; text-anchor:end;" transform="rotate(0, 200.386, 1333.25)" x="200.386" y="1333.25">0.0</text>
</g>
<g clip-path="url(#clip2501)">
<text style="fill:#000000; fill-opacity:1; font-family:Arial,Helvetica Neue,Helvetica,sans-serif; font-size:48px; text-anchor:end;" transform="rotate(0, 200.386, 983.798)" x="200.386" y="983.798">0.2</text>
</g>
<g clip-path="url(#clip2501)">
<text style="fill:#000000; fill-opacity:1; font-family:Arial,Helvetica Neue,Helvetica,sans-serif; font-size:48px; text-anchor:end;" transform="rotate(0, 200.386, 634.347)" x="200.386" y="634.347">0.4</text>
</g>
<g clip-path="url(#clip2501)">
<text style="fill:#000000; fill-opacity:1; font-family:Arial,Helvetica Neue,Helvetica,sans-serif; font-size:48px; text-anchor:end;" transform="rotate(0, 200.386, 284.896)" x="200.386" y="284.896">0.6</text>
</g>
<g clip-path="url(#clip2501)">
<text style="fill:#000000; fill-opacity:1; font-family:Arial,Helvetica Neue,Helvetica,sans-serif; font-size:66px; text-anchor:middle;" transform="rotate(0, 1272.82, 1590.4)" x="1272.82" y="1590.4">t</text>
</g>
<g clip-path="url(#clip2501)">
<text style="fill:#000000; fill-opacity:1; font-family:Arial,Helvetica Neue,Helvetica,sans-serif; font-size:66px; text-anchor:middle;" transform="rotate(-90, 57.6, 743.863)" x="57.6" y="743.863">x</text>
</g>
<polyline clip-path="url(#clip2503)" style="stroke:#009af9; stroke-width:12; stroke-opacity:1; fill:none" points="
  224.386,1315.75 226.18,1315.69 227.974,1315.5 229.767,1315.18 231.561,1314.75 233.355,1314.18 235.149,1313.5 236.942,1312.7 238.736,1311.78 240.53,1310.74 
  242.323,1309.59 244.117,1308.32 245.911,1306.94 247.705,1305.46 249.498,1303.87 251.292,1302.19 253.086,1300.4 254.88,1298.51 256.673,1296.53 258.467,1294.46 
  260.261,1292.31 262.055,1290.07 263.848,1287.76 265.642,1285.38 267.436,1282.92 269.229,1280.39 271.023,1277.8 272.817,1275.15 274.611,1272.45 276.404,1269.69 
  278.198,1266.9 279.992,1264.06 281.786,1261.19 283.579,1258.29 285.373,1255.36 287.167,1252.41 288.961,1249.44 290.754,1246.46 292.548,1243.46 294.342,1240.46 
  296.135,1237.46 297.929,1234.47 299.723,1231.5 301.517,1228.54 303.31,1225.61 305.104,1222.7 306.898,1219.82 308.692,1216.98 310.485,1214.18 312.279,1211.41 
  314.073,1208.7 315.867,1206.03 317.66,1203.42 319.454,1200.86 321.248,1198.38 323.041,1195.97 324.835,1193.63 326.629,1191.38 328.423,1189.21 330.216,1187.12 
  332.01,1185.13 333.804,1183.23 335.598,1181.42 337.391,1179.71 339.185,1178.1 340.979,1176.59 342.773,1175.18 344.566,1173.88 346.36,1172.69 348.154,1171.61 
  349.947,1170.65 351.741,1169.82 353.535,1169.11 355.329,1168.52 357.122,1168.06 358.916,1167.73 360.71,1167.53 362.504,1167.45 364.297,1167.5 366.091,1167.68 
  367.885,1167.99 369.679,1168.43 371.472,1168.99 373.266,1169.67 375.06,1170.49 376.853,1171.42 378.647,1172.48 380.441,1173.67 382.235,1174.99 384.028,1176.45 
  385.822,1178.03 387.616,1179.73 389.41,1181.56 391.203,1183.51 392.997,1185.58 394.791,1187.77 396.585,1190.06 398.378,1192.47 400.172,1194.98 401.966,1197.59 
  403.759,1200.3 405.553,1203.11 407.347,1206.01 409.141,1209.01 410.934,1212.1 412.728,1215.28 414.522,1218.55 416.316,1221.9 418.109,1225.33 419.903,1228.82 
  421.697,1232.39 423.491,1236.01 425.284,1239.7 427.078,1243.43 428.872,1247.21 430.665,1251.03 432.459,1254.89 434.253,1258.78 436.047,1262.7 437.84,1266.63 
  439.634,1270.58 441.428,1274.54 443.222,1278.52 445.015,1282.51 446.809,1286.5 448.603,1290.5 450.397,1294.49 452.19,1298.47 453.984,1302.44 455.778,1306.38 
  457.571,1310.3 459.365,1314.19 461.159,1318.04 462.953,1321.84 464.746,1325.6 466.54,1329.3 468.334,1332.95 470.128,1336.53 471.921,1340.05 473.715,1343.49 
  475.509,1346.86 477.302,1350.15 479.096,1353.37 480.89,1356.51 482.684,1359.57 484.477,1362.55 486.271,1365.43 488.065,1368.22 489.859,1370.91 491.652,1373.5 
  493.446,1375.98 495.24,1378.36 497.034,1380.62 498.827,1382.77 500.621,1384.8 502.415,1386.71 504.208,1388.49 506.002,1390.15 507.796,1391.68 509.59,1393.08 
  511.383,1394.37 513.177,1395.54 514.971,1396.58 516.765,1397.5 518.558,1398.29 520.352,1398.96 522.146,1399.5 523.94,1399.91 525.733,1400.19 527.527,1400.35 
  529.321,1400.37 531.114,1400.27 532.908,1400.03 534.702,1399.67 536.496,1399.17 538.289,1398.55 540.083,1397.81 541.877,1396.93 543.671,1395.94 545.464,1394.82 
  547.258,1393.58 549.052,1392.24 550.846,1390.79 552.639,1389.24 554.433,1387.59 556.227,1385.84 558.02,1383.99 559.814,1382.05 561.608,1380.01 563.402,1377.89 
  565.195,1375.68 566.989,1373.39 568.783,1371.02 570.577,1368.57 572.37,1366.04 574.164,1363.45 575.958,1360.8 577.752,1358.08 579.545,1355.3 581.339,1352.47 
  583.133,1349.59 584.926,1346.66 586.72,1343.68 588.514,1340.67 590.308,1337.63 592.101,1334.55 593.895,1331.45 595.689,1328.33 597.483,1325.19 599.276,1322.04 
  601.07,1318.88 602.864,1315.71 604.658,1312.55 606.451,1309.38 608.245,1306.23 610.039,1303.09 611.832,1299.97 613.626,1296.86 615.42,1293.79 617.214,1290.74 
  619.007,1287.73 620.801,1284.76 622.595,1281.83 624.389,1278.95 626.182,1276.12 627.976,1273.35 629.77,1270.63 631.564,1267.97 633.357,1265.38 635.151,1262.87 
  636.945,1260.42 638.738,1258.05 640.532,1255.76 642.326,1253.55 644.12,1251.43 645.913,1249.4 647.707,1247.46 649.501,1245.61 651.295,1243.86 653.088,1242.21 
  654.882,1240.66 656.676,1239.22 658.47,1237.88 660.263,1236.65 662.057,1235.52 663.851,1234.51 665.644,1233.61 667.438,1232.82 669.232,1232.15 671.026,1231.59 
  672.819,1231.15 674.613,1230.83 676.407,1230.62 678.201,1230.53 679.994,1230.56 681.788,1230.71 683.582,1230.98 685.376,1231.36 687.169,1231.86 688.963,1232.48 
  690.757,1233.21 692.55,1234.05 694.344,1235.01 696.138,1236.08 697.932,1237.25 699.725,1238.54 701.519,1239.93 703.313,1241.43 705.107,1243.03 706.9,1244.73 
  708.694,1246.53 710.488,1248.42 712.281,1250.41 714.075,1252.48 715.869,1254.65 717.663,1256.9 719.456,1259.23 721.25,1261.64 723.044,1264.12 724.838,1266.68 
  726.631,1269.3 728.425,1271.99 730.219,1274.74 732.013,1277.54 733.806,1280.4 735.6,1283.31 737.394,1286.26 739.187,1289.25 740.981,1292.28 742.775,1295.34 
  744.569,1298.42 746.362,1301.54 748.156,1304.67 749.95,1307.81 751.744,1310.97 753.537,1314.13 755.331,1317.3 757.125,1320.47 758.919,1323.62 760.712,1326.77 
  762.506,1329.9 764.3,1333.02 766.093,1336.11 767.887,1339.17 769.681,1342.2 771.475,1345.19 773.268,1348.15 775.062,1351.05 776.856,1353.91 778.65,1356.72 
  780.443,1359.46 782.237,1362.15 784.031,1364.78 785.825,1367.33 787.618,1369.82 789.412,1372.23 791.206,1374.56 792.999,1376.81 794.793,1378.98 796.587,1381.06 
  798.381,1383.05 800.174,1384.94 801.968,1386.74 803.762,1388.45 805.556,1390.05 807.349,1391.55 809.143,1392.94 810.937,1394.23 812.731,1395.41 814.524,1396.48 
  816.318,1397.44 818.112,1398.29 819.905,1399.02 821.699,1399.64 823.493,1400.14 825.287,1400.52 827.08,1400.79 828.874,1400.94 830.668,1400.98 832.462,1400.89 
  834.255,1400.69 836.049,1400.37 837.843,1399.93 839.637,1399.37 841.43,1398.7 843.224,1397.92 845.018,1397.02 846.811,1396 848.605,1394.88 850.399,1393.65 
  852.193,1392.31 853.986,1390.87 855.78,1389.32 857.574,1387.67 859.368,1385.92 861.161,1384.08 862.955,1382.14 864.749,1380.11 866.543,1377.99 868.336,1375.79 
  870.13,1373.5 871.924,1371.13 873.717,1368.68 875.511,1366.17 877.305,1363.58 879.099,1360.92 880.892,1358.21 882.686,1355.43 884.48,1352.6 886.274,1349.72 
  888.067,1346.79 889.861,1343.82 891.655,1340.81 893.449,1337.76 895.242,1334.69 897.036,1331.59 898.83,1328.46 900.623,1325.32 902.417,1322.17 904.211,1319.01 
  906.005,1315.84 907.798,1312.68 909.592,1309.52 911.386,1306.36 913.18,1303.22 914.973,1300.1 916.767,1297 918.561,1293.92 920.355,1290.87 922.148,1287.86 
  923.942,1284.89 925.736,1281.95 927.529,1279.07 929.323,1276.23 931.117,1273.45 932.911,1270.73 934.704,1268.08 936.498,1265.48 938.292,1262.96 940.086,1260.51 
  941.879,1258.13 943.673,1255.84 945.467,1253.63 947.26,1251.5 949.054,1249.47 950.848,1247.52 952.642,1245.67 954.435,1243.92 956.229,1242.26 958.023,1240.71 
  959.817,1239.26 961.61,1237.92 963.404,1236.68 965.198,1235.55 966.992,1234.54 968.785,1233.63 970.579,1232.84 972.373,1232.17 974.166,1231.6 975.96,1231.16 
  977.754,1230.83 979.548,1230.62 981.341,1230.52 983.135,1230.54 984.929,1230.69 986.723,1230.94 988.516,1231.32 990.31,1231.81 992.104,1232.42 993.898,1233.14 
  995.691,1233.98 997.485,1234.94 999.279,1236 1001.07,1237.17 1002.87,1238.46 1004.66,1239.85 1006.45,1241.35 1008.25,1242.94 1010.04,1244.64 1011.83,1246.44 
  1013.63,1248.33 1015.42,1250.32 1017.22,1252.39 1019.01,1254.55 1020.8,1256.8 1022.6,1259.13 1024.39,1261.53 1026.18,1264.01 1027.98,1266.56 1029.77,1269.18 
  1031.57,1271.87 1033.36,1274.61 1035.15,1277.41 1036.95,1280.27 1038.74,1283.17 1040.53,1286.12 1042.33,1289.11 1044.12,1292.14 1045.92,1295.2 1047.71,1298.29 
  1049.5,1301.41 1051.3,1304.54 1053.09,1307.69 1054.88,1310.84 1056.68,1314.01 1058.47,1317.18 1060.27,1320.35 1062.06,1323.5 1063.85,1326.65 1065.65,1329.79 
  1067.44,1332.9 1069.23,1335.99 1071.03,1339.05 1072.82,1342.08 1074.62,1345.08 1076.41,1348.03 1078.2,1350.94 1080,1353.8 1081.79,1356.61 1083.58,1359.36 
  1085.38,1362.05 1087.17,1364.68 1088.97,1367.24 1090.76,1369.73 1092.55,1372.14 1094.35,1374.48 1096.14,1376.74 1097.93,1378.91 1099.73,1380.99 1101.52,1382.98 
  1103.32,1384.89 1105.11,1386.69 1106.9,1388.4 1108.7,1390.01 1110.49,1391.51 1112.28,1392.91 1114.08,1394.21 1115.87,1395.39 1117.67,1396.46 1119.46,1397.43 
  1121.25,1398.28 1123.05,1399.01 1124.84,1399.63 1126.63,1400.14 1128.43,1400.52 1130.22,1400.8 1132.01,1400.95 1133.81,1400.98 1135.6,1400.9 1137.4,1400.7 
  1139.19,1400.39 1140.98,1399.96 1142.78,1399.41 1144.57,1398.74 1146.36,1397.97 1148.16,1397.08 1149.95,1396.07 1151.75,1394.96 1153.54,1393.73 1155.33,1392.4 
  1157.13,1390.96 1158.92,1389.42 1160.71,1387.77 1162.51,1386.03 1164.3,1384.18 1166.1,1382.25 1167.89,1380.22 1169.68,1378.1 1171.48,1375.89 1173.27,1373.6 
  1175.06,1371.23 1176.86,1368.79 1178.65,1366.27 1180.45,1363.69 1182.24,1361.04 1184.03,1358.32 1185.83,1355.55 1187.62,1352.72 1189.41,1349.84 1191.21,1346.91 
  1193,1343.95 1194.8,1340.94 1196.59,1337.9 1198.38,1334.82 1200.18,1331.72 1201.97,1328.6 1203.76,1325.46 1205.56,1322.31 1207.35,1319.14 1209.15,1315.97 
  1210.94,1312.8 1212.73,1309.64 1214.53,1306.48 1216.32,1303.34 1218.11,1300.21 1219.91,1297.11 1221.7,1294.03 1223.5,1290.98 1225.29,1287.97 1227.08,1284.99 
  1228.88,1282.06 1230.67,1279.17 1232.46,1276.33 1234.26,1273.55 1236.05,1270.83 1237.85,1268.17 1239.64,1265.57 1241.43,1263.05 1243.23,1260.59 1245.02,1258.22 
  1246.81,1255.92 1248.61,1253.7 1250.4,1251.57 1252.2,1249.53 1253.99,1247.58 1255.78,1245.73 1257.58,1243.97 1259.37,1242.31 1261.16,1240.75 1262.96,1239.3 
  1264.75,1237.95 1266.54,1236.71 1268.34,1235.57 1270.13,1234.55 1271.93,1233.64 1273.72,1232.84 1275.51,1232.16 1277.31,1231.59 1279.1,1231.14 1280.89,1230.81 
  1282.69,1230.59 1284.48,1230.5 1286.28,1230.52 1288.07,1230.66 1289.86,1230.91 1291.66,1231.29 1293.45,1231.78 1295.24,1232.38 1297.04,1233.11 1298.83,1233.94 
  1300.63,1234.89 1302.42,1235.95 1304.21,1237.12 1306.01,1238.4 1307.8,1239.78 1309.59,1241.27 1311.39,1242.86 1313.18,1244.55 1314.98,1246.34 1316.77,1248.23 
  1318.56,1250.21 1320.36,1252.28 1322.15,1254.44 1323.94,1256.68 1325.74,1259.01 1327.53,1261.41 1329.33,1263.89 1331.12,1266.44 1332.91,1269.06 1334.71,1271.75 
  1336.5,1274.5 1338.29,1277.3 1340.09,1280.15 1341.88,1283.06 1343.68,1286 1345.47,1288.99 1347.26,1292.02 1349.06,1295.08 1350.85,1298.17 1352.64,1301.28 
  1354.44,1304.41 1356.23,1307.56 1358.03,1310.71 1359.82,1313.88 1361.61,1317.05 1363.41,1320.21 1365.2,1323.37 1366.99,1326.52 1368.79,1329.66 1370.58,1332.77 
  1372.38,1335.87 1374.17,1338.93 1375.96,1341.97 1377.76,1344.97 1379.55,1347.92 1381.34,1350.84 1383.14,1353.7 1384.93,1356.51 1386.73,1359.27 1388.52,1361.96 
  1390.31,1364.59 1392.11,1367.16 1393.9,1369.65 1395.69,1372.07 1397.49,1374.41 1399.28,1376.67 1401.07,1378.84 1402.87,1380.93 1404.66,1382.93 1406.46,1384.83 
  1408.25,1386.64 1410.04,1388.35 1411.84,1389.96 1413.63,1391.47 1415.42,1392.87 1417.22,1394.17 1419.01,1395.36 1420.81,1396.44 1422.6,1397.4 1424.39,1398.26 
  1426.19,1399 1427.98,1399.63 1429.77,1400.14 1431.57,1400.53 1433.36,1400.81 1435.16,1400.97 1436.95,1401.02 1438.74,1400.94 1440.54,1400.75 1442.33,1400.44 
  1444.12,1400.01 1445.92,1399.47 1447.71,1398.8 1449.51,1398.03 1451.3,1397.14 1453.09,1396.14 1454.89,1395.02 1456.68,1393.8 1458.47,1392.47 1460.27,1391.03 
  1462.06,1389.49 1463.86,1387.84 1465.65,1386.1 1467.44,1384.26 1469.24,1382.33 1471.03,1380.3 1472.82,1378.19 1474.62,1375.99 1476.41,1373.71 1478.21,1371.35 
  1480,1368.91 1481.79,1366.39 1483.59,1363.81 1485.38,1361.16 1487.17,1358.45 1488.97,1355.68 1490.76,1352.85 1492.56,1349.97 1494.35,1347.04 1496.14,1344.07 
  1497.94,1341.06 1499.73,1338.02 1501.52,1334.94 1503.32,1331.84 1505.11,1328.72 1506.91,1325.58 1508.7,1322.42 1510.49,1319.26 1512.29,1316.09 1514.08,1312.92 
  1515.87,1309.76 1517.67,1306.6 1519.46,1303.46 1521.26,1300.33 1523.05,1297.23 1524.84,1294.15 1526.64,1291.1 1528.43,1288.08 1530.22,1285.11 1532.02,1282.17 
  1533.81,1279.28 1535.6,1276.44 1537.4,1273.66 1539.19,1270.93 1540.99,1268.26 1542.78,1265.66 1544.57,1263.13 1546.37,1260.67 1548.16,1258.29 1549.95,1255.99 
  1551.75,1253.77 1553.54,1251.64 1555.34,1249.59 1557.13,1247.64 1558.92,1245.78 1560.72,1244.01 1562.51,1242.35 1564.3,1240.79 1566.1,1239.33 1567.89,1237.97 
  1569.69,1236.73 1571.48,1235.59 1573.27,1234.57 1575.07,1233.65 1576.86,1232.85 1578.65,1232.17 1580.45,1231.6 1582.24,1231.15 1584.04,1230.81 1585.83,1230.59 
  1587.62,1230.49 1589.42,1230.5 1591.21,1230.64 1593,1230.89 1594.8,1231.25 1596.59,1231.74 1598.39,1232.33 1600.18,1233.05 1601.97,1233.88 1603.77,1234.82 
  1605.56,1235.87 1607.35,1237.04 1609.15,1238.31 1610.94,1239.69 1612.74,1241.18 1614.53,1242.77 1616.32,1244.46 1618.12,1246.25 1619.91,1248.13 1621.7,1250.11 
  1623.5,1252.18 1625.29,1254.34 1627.09,1256.59 1628.88,1258.91 1630.67,1261.31 1632.47,1263.79 1634.26,1266.34 1636.05,1268.95 1637.85,1271.64 1639.64,1274.38 
  1641.44,1277.18 1643.23,1280.03 1645.02,1282.93 1646.82,1285.87 1648.61,1288.86 1650.4,1291.89 1652.2,1294.95 1653.99,1298.03 1655.78,1301.14 1657.58,1304.28 
  1659.37,1307.43 1661.17,1310.59 1662.96,1313.75 1664.75,1316.93 1666.55,1320.09 1668.34,1323.26 1670.13,1326.41 1671.93,1329.55 1673.72,1332.66 1675.52,1335.76 
  1677.31,1338.83 1679.1,1341.86 1680.9,1344.86 1682.69,1347.82 1684.48,1350.74 1686.28,1353.6 1688.07,1356.41 1689.87,1359.17 1691.66,1361.87 1693.45,1364.5 
  1695.25,1367.07 1697.04,1369.56 1698.83,1371.98 1700.63,1374.33 1702.42,1376.59 1704.22,1378.77 1706.01,1380.86 1707.8,1382.86 1709.6,1384.77 1711.39,1386.59 
  1713.18,1388.3 1714.98,1389.92 1716.77,1391.43 1718.57,1392.84 1720.36,1394.14 1722.15,1395.34 1723.95,1396.42 1725.74,1397.4 1727.53,1398.26 1729.33,1399.01 
  1731.12,1399.64 1732.92,1400.15 1734.71,1400.55 1736.5,1400.83 1738.3,1400.99 1740.09,1401.04 1741.88,1400.97 1743.68,1400.77 1745.47,1400.47 1747.27,1400.04 
  1749.06,1399.5 1750.85,1398.84 1752.65,1398.07 1754.44,1397.18 1756.23,1396.19 1758.03,1395.08 1759.82,1393.86 1761.62,1392.54 1763.41,1391.1 1765.2,1389.57 
  1767,1387.93 1768.79,1386.2 1770.58,1384.36 1772.38,1382.43 1774.17,1380.41 1775.97,1378.3 1777.76,1376.1 1779.55,1373.82 1781.35,1371.46 1783.14,1369.02 
  1784.93,1366.51 1786.73,1363.92 1788.52,1361.27 1790.31,1358.56 1792.11,1355.79 1793.9,1352.96 1795.7,1350.08 1797.49,1347.16 1799.28,1344.19 1801.08,1341.18 
  1802.87,1338.14 1804.66,1335.07 1806.46,1331.97 1808.25,1328.85 1810.05,1325.71 1811.84,1322.55 1813.63,1319.39 1815.43,1316.22 1817.22,1313.05 1819.01,1309.89 
  1820.81,1306.73 1822.6,1303.59 1824.4,1300.46 1826.19,1297.35 1827.98,1294.27 1829.78,1291.21 1831.57,1288.19 1833.36,1285.21 1835.16,1282.27 1836.95,1279.38 
  1838.75,1276.54 1840.54,1273.75 1842.33,1271.02 1844.13,1268.35 1845.92,1265.75 1847.71,1263.21 1849.51,1260.75 1851.3,1258.37 1853.1,1256.06 1854.89,1253.84 
  1856.68,1251.7 1858.48,1249.65 1860.27,1247.7 1862.06,1245.83 1863.86,1244.07 1865.65,1242.4 1867.45,1240.83 1869.24,1239.37 1871.03,1238.01 1872.83,1236.76 
  1874.62,1235.62 1876.41,1234.59 1878.21,1233.67 1880,1232.87 1881.8,1232.17 1883.59,1231.6 1885.38,1231.14 1887.18,1230.79 1888.97,1230.57 1890.76,1230.46 
  1892.56,1230.47 1894.35,1230.59 1896.15,1230.84 1897.94,1231.2 1899.73,1231.68 1901.53,1232.28 1903.32,1232.99 1905.11,1233.82 1906.91,1234.76 1908.7,1235.81 
  1910.5,1236.97 1912.29,1238.25 1914.08,1239.63 1915.88,1241.11 1917.67,1242.7 1919.46,1244.38 1921.26,1246.17 1923.05,1248.05 1924.84,1250.03 1926.64,1252.09 
  1928.43,1254.24 1930.23,1256.48 1932.02,1258.8 1933.81,1261.2 1935.61,1263.67 1937.4,1266.22 1939.19,1268.83 1940.99,1271.51 1942.78,1274.25 1944.58,1277.05 
  1946.37,1279.9 1948.16,1282.8 1949.96,1285.75 1951.75,1288.74 1953.54,1291.77 1955.34,1294.83 1957.13,1297.91 1958.93,1301.03 1960.72,1304.16 1962.51,1307.31 
  1964.31,1310.47 1966.1,1313.63 1967.89,1316.8 1969.69,1319.97 1971.48,1323.14 1973.28,1326.29 1975.07,1329.42 1976.86,1332.54 1978.66,1335.64 1980.45,1338.71 
  1982.24,1341.74 1984.04,1344.74 1985.83,1347.7 1987.63,1350.62 1989.42,1353.49 1991.21,1356.31 1993.01,1359.07 1994.8,1361.77 1996.59,1364.41 1998.39,1366.98 
  2000.18,1369.48 2001.98,1371.91 2003.77,1374.25 2005.56,1376.52 2007.36,1378.7 2009.15,1380.8 2010.94,1382.81 2012.74,1384.72 2014.53,1386.54 2016.33,1388.26 
  2018.12,1389.88 2019.91,1391.4 2021.71,1392.81 2023.5,1394.12 2025.29,1395.31 2027.09,1396.4 2028.88,1397.38 2030.68,1398.24 2032.47,1398.99 2034.26,1399.63 
  2036.06,1400.15 2037.85,1400.55 2039.64,1400.83 2041.44,1401 2043.23,1401.05 2045.02,1400.98 2046.82,1400.8 2048.61,1400.5 2050.41,1400.08 2052.2,1399.55 
  2053.99,1398.9 2055.79,1398.13 2057.58,1397.25 2059.37,1396.26 2061.17,1395.16 2062.96,1393.95 2064.76,1392.62 2066.55,1391.2 2068.34,1389.66 2070.14,1388.03 
  2071.93,1386.29 2073.72,1384.46 2075.52,1382.53 2077.31,1380.51 2079.11,1378.4 2080.9,1376.2 2082.69,1373.92 2084.49,1371.56 2086.28,1369.12 2088.07,1366.61 
  2089.87,1364.03 2091.66,1361.39 2093.46,1358.68 2095.25,1355.91 2097.04,1353.09 2098.84,1350.21 2100.63,1347.29 2102.42,1344.32 2104.22,1341.32 2106.01,1338.28 
  2107.81,1335.2 2109.6,1332.1 2111.39,1328.98 2113.19,1325.84 2114.98,1322.68 2116.77,1319.52 2118.57,1316.35 2120.36,1313.17 2122.16,1310.01 2123.95,1306.85 
  2125.74,1303.7 2127.54,1300.57 2129.33,1297.46 2131.12,1294.37 2132.92,1291.32 2134.71,1288.3 2136.51,1285.32 2138.3,1282.37 2140.09,1279.48 2141.89,1276.64 
  2143.68,1273.85 2145.47,1271.11 2147.27,1268.44 2149.06,1265.84 2150.86,1263.3 2152.65,1260.84 2154.44,1258.45 2156.24,1256.14 2158.03,1253.91 2159.82,1251.77 
  2161.62,1249.72 2163.41,1247.76 2165.21,1245.89 2167,1244.12 2168.79,1242.44 2170.59,1240.87 2172.38,1239.4 2174.17,1238.04 2175.97,1236.78 2177.76,1235.64 
  2179.55,1234.6 2181.35,1233.68 2183.14,1232.86 2184.94,1232.17 2186.73,1231.59 2188.52,1231.12 2190.32,1230.78 2192.11,1230.55 2193.9,1230.44 2195.7,1230.45 
  2197.49,1230.57 2199.29,1230.81 2201.08,1231.17 2202.87,1231.65 2204.67,1232.24 2206.46,1232.95 2208.25,1233.78 2210.05,1234.71 2211.84,1235.76 2213.64,1236.91 
  2215.43,1238.18 2217.22,1239.55 2219.02,1241.03 2220.81,1242.61 2222.6,1244.29 2224.4,1246.07 2226.19,1247.95 2227.99,1249.92 2229.78,1251.98 2231.57,1254.13 
  2233.37,1256.37 2235.16,1258.69 2236.95,1261.08 2238.75,1263.56 2240.54,1266.1 2242.34,1268.72 2244.13,1271.4 2245.92,1274.14 2247.72,1276.93 2249.51,1279.79 
  2251.3,1282.69 2253.1,1285.63 2254.89,1288.62 2256.69,1291.64 2258.48,1294.7 2260.27,1297.79 2262.07,1300.9 2263.86,1304.03 2265.65,1307.18 2267.45,1310.34 
  2269.24,1313.5 2271.04,1316.67 2272.83,1319.84 2274.62,1323.01 2276.42,1326.16 2278.21,1329.3 2280,1332.42 2281.8,1335.52 2283.59,1338.59 2285.39,1341.63 
  2287.18,1344.64 2288.97,1347.6 2290.77,1350.52 2292.56,1353.39 2294.35,1356.21 2296.15,1358.98 2297.94,1361.68 2299.74,1364.32 2301.53,1366.89 2303.32,1369.4 
  2305.12,1371.82 2306.91,1374.18 2308.7,1376.45 2310.5,1378.63 2312.29,1380.73 2314.08,1382.74 2315.88,1384.66 2317.67,1386.48 2319.47,1388.2 2321.26,1389.83 
  
  "/>
<circle clip-path="url(#clip2503)" style="fill:#000000; stroke:none; fill-opacity:1" cx="306.616" cy="1216.9" r="18"/>
<circle clip-path="url(#clip2503)" style="fill:#e26f46; stroke:none; fill-opacity:1" cx="306.616" cy="1216.9" r="14"/>
<circle clip-path="url(#clip2503)" style="fill:#000000; stroke:none; fill-opacity:1" cx="324.32" cy="1175.56" r="18"/>
<circle clip-path="url(#clip2503)" style="fill:#e26f46; stroke:none; fill-opacity:1" cx="324.32" cy="1175.56" r="14"/>
<circle clip-path="url(#clip2503)" style="fill:#000000; stroke:none; fill-opacity:1" cx="340.126" cy="1134.44" r="18"/>
<circle clip-path="url(#clip2503)" style="fill:#e26f46; stroke:none; fill-opacity:1" cx="340.126" cy="1134.44" r="14"/>
<circle clip-path="url(#clip2503)" style="fill:#000000; stroke:none; fill-opacity:1" cx="357.338" cy="1084.96" r="18"/>
<circle clip-path="url(#clip2503)" style="fill:#e26f46; stroke:none; fill-opacity:1" cx="357.338" cy="1084.96" r="14"/>
<circle clip-path="url(#clip2503)" style="fill:#000000; stroke:none; fill-opacity:1" cx="373.637" cy="1038.65" r="18"/>
<circle clip-path="url(#clip2503)" style="fill:#e26f46; stroke:none; fill-opacity:1" cx="373.637" cy="1038.65" r="14"/>
<circle clip-path="url(#clip2503)" style="fill:#000000; stroke:none; fill-opacity:1" cx="390.708" cy="989.632" r="18"/>
<circle clip-path="url(#clip2503)" style="fill:#e26f46; stroke:none; fill-opacity:1" cx="390.708" cy="989.632" r="14"/>
<circle clip-path="url(#clip2503)" style="fill:#000000; stroke:none; fill-opacity:1" cx="404.618" cy="944.451" r="18"/>
<circle clip-path="url(#clip2503)" style="fill:#e26f46; stroke:none; fill-opacity:1" cx="404.618" cy="944.451" r="14"/>
<circle clip-path="url(#clip2503)" style="fill:#000000; stroke:none; fill-opacity:1" cx="419.792" cy="900.147" r="18"/>
<circle clip-path="url(#clip2503)" style="fill:#e26f46; stroke:none; fill-opacity:1" cx="419.792" cy="900.147" r="14"/>
<circle clip-path="url(#clip2503)" style="fill:#000000; stroke:none; fill-opacity:1" cx="433.562" cy="853.066" r="18"/>
<circle clip-path="url(#clip2503)" style="fill:#e26f46; stroke:none; fill-opacity:1" cx="433.562" cy="853.066" r="14"/>
<circle clip-path="url(#clip2503)" style="fill:#000000; stroke:none; fill-opacity:1" cx="450.773" cy="803.926" r="18"/>
<circle clip-path="url(#clip2503)" style="fill:#e26f46; stroke:none; fill-opacity:1" cx="450.773" cy="803.926" r="14"/>
<circle clip-path="url(#clip2503)" style="fill:#000000; stroke:none; fill-opacity:1" cx="464.051" cy="753.563" r="18"/>
<circle clip-path="url(#clip2503)" style="fill:#e26f46; stroke:none; fill-opacity:1" cx="464.051" cy="753.563" r="14"/>
<circle clip-path="url(#clip2503)" style="fill:#000000; stroke:none; fill-opacity:1" cx="479.858" cy="710.881" r="18"/>
<circle clip-path="url(#clip2503)" style="fill:#e26f46; stroke:none; fill-opacity:1" cx="479.858" cy="710.881" r="14"/>
<circle clip-path="url(#clip2503)" style="fill:#000000; stroke:none; fill-opacity:1" cx="500.786" cy="649.129" r="18"/>
<circle clip-path="url(#clip2503)" style="fill:#e26f46; stroke:none; fill-opacity:1" cx="500.786" cy="649.129" r="14"/>
<circle clip-path="url(#clip2503)" style="fill:#000000; stroke:none; fill-opacity:1" cx="516.529" cy="604.912" r="18"/>
<circle clip-path="url(#clip2503)" style="fill:#e26f46; stroke:none; fill-opacity:1" cx="516.529" cy="604.912" r="14"/>
<circle clip-path="url(#clip2503)" style="fill:#000000; stroke:none; fill-opacity:1" cx="534.865" cy="566.44" r="18"/>
<circle clip-path="url(#clip2503)" style="fill:#e26f46; stroke:none; fill-opacity:1" cx="534.865" cy="566.44" r="14"/>
<circle clip-path="url(#clip2503)" style="fill:#000000; stroke:none; fill-opacity:1" cx="551.093" cy="522.887" r="18"/>
<circle clip-path="url(#clip2503)" style="fill:#e26f46; stroke:none; fill-opacity:1" cx="551.093" cy="522.887" r="14"/>
<circle clip-path="url(#clip2503)" style="fill:#000000; stroke:none; fill-opacity:1" cx="574.698" cy="478.46" r="18"/>
<circle clip-path="url(#clip2503)" style="fill:#e26f46; stroke:none; fill-opacity:1" cx="574.698" cy="478.46" r="14"/>
<circle clip-path="url(#clip2503)" style="fill:#000000; stroke:none; fill-opacity:1" cx="601.253" cy="430.487" r="18"/>
<circle clip-path="url(#clip2503)" style="fill:#e26f46; stroke:none; fill-opacity:1" cx="601.253" cy="430.487" r="14"/>
<circle clip-path="url(#clip2503)" style="fill:#000000; stroke:none; fill-opacity:1" cx="683.132" cy="285.635" r="18"/>
<circle clip-path="url(#clip2503)" style="fill:#e26f46; stroke:none; fill-opacity:1" cx="683.132" cy="285.635" r="14"/>
<circle clip-path="url(#clip2503)" style="fill:#000000; stroke:none; fill-opacity:1" cx="731.817" cy="223.34" r="18"/>
<circle clip-path="url(#clip2503)" style="fill:#e26f46; stroke:none; fill-opacity:1" cx="731.817" cy="223.34" r="14"/>
<circle clip-path="url(#clip2503)" style="fill:#000000; stroke:none; fill-opacity:1" cx="793.779" cy="169.192" r="18"/>
<circle clip-path="url(#clip2503)" style="fill:#e26f46; stroke:none; fill-opacity:1" cx="793.779" cy="169.192" r="14"/>
<circle clip-path="url(#clip2503)" style="fill:#000000; stroke:none; fill-opacity:1" cx="853.528" cy="127.311" r="18"/>
<circle clip-path="url(#clip2503)" style="fill:#e26f46; stroke:none; fill-opacity:1" cx="853.528" cy="127.311" r="14"/>
<circle clip-path="url(#clip2503)" style="fill:#000000; stroke:none; fill-opacity:1" cx="922.129" cy="100.348" r="18"/>
<circle clip-path="url(#clip2503)" style="fill:#e26f46; stroke:none; fill-opacity:1" cx="922.129" cy="100.348" r="14"/>
<circle clip-path="url(#clip2503)" style="fill:#000000; stroke:none; fill-opacity:1" cx="995.156" cy="86.6754" r="18"/>
<circle clip-path="url(#clip2503)" style="fill:#e26f46; stroke:none; fill-opacity:1" cx="995.156" cy="86.6754" r="14"/>
<circle clip-path="url(#clip2503)" style="fill:#000000; stroke:none; fill-opacity:1" cx="1065.97" cy="90.5089" r="18"/>
<circle clip-path="url(#clip2503)" style="fill:#e26f46; stroke:none; fill-opacity:1" cx="1065.97" cy="90.5089" r="14"/>
<circle clip-path="url(#clip2503)" style="fill:#000000; stroke:none; fill-opacity:1" cx="1139" cy="104.821" r="18"/>
<circle clip-path="url(#clip2503)" style="fill:#e26f46; stroke:none; fill-opacity:1" cx="1139" cy="104.821" r="14"/>
<circle clip-path="url(#clip2503)" style="fill:#000000; stroke:none; fill-opacity:1" cx="1207.6" cy="129.611" r="18"/>
<circle clip-path="url(#clip2503)" style="fill:#e26f46; stroke:none; fill-opacity:1" cx="1207.6" cy="129.611" r="14"/>
<circle clip-path="url(#clip2503)" style="fill:#000000; stroke:none; fill-opacity:1" cx="1278.41" cy="153.762" r="18"/>
<circle clip-path="url(#clip2503)" style="fill:#e26f46; stroke:none; fill-opacity:1" cx="1278.41" cy="153.762" r="14"/>
<circle clip-path="url(#clip2503)" style="fill:#000000; stroke:none; fill-opacity:1" cx="1351.44" cy="175.421" r="18"/>
<circle clip-path="url(#clip2503)" style="fill:#e26f46; stroke:none; fill-opacity:1" cx="1351.44" cy="175.421" r="14"/>
<circle clip-path="url(#clip2503)" style="fill:#000000; stroke:none; fill-opacity:1" cx="1417.83" cy="191.714" r="18"/>
<circle clip-path="url(#clip2503)" style="fill:#e26f46; stroke:none; fill-opacity:1" cx="1417.83" cy="191.714" r="14"/>
<circle clip-path="url(#clip2503)" style="fill:#000000; stroke:none; fill-opacity:1" cx="1488.64" cy="201.617" r="18"/>
<circle clip-path="url(#clip2503)" style="fill:#e26f46; stroke:none; fill-opacity:1" cx="1488.64" cy="201.617" r="14"/>
<circle clip-path="url(#clip2503)" style="fill:#000000; stroke:none; fill-opacity:1" cx="1557.24" cy="204.748" r="18"/>
<circle clip-path="url(#clip2503)" style="fill:#e26f46; stroke:none; fill-opacity:1" cx="1557.24" cy="204.748" r="14"/>
<circle clip-path="url(#clip2503)" style="fill:#000000; stroke:none; fill-opacity:1" cx="1628.06" cy="198.997" r="18"/>
<circle clip-path="url(#clip2503)" style="fill:#e26f46; stroke:none; fill-opacity:1" cx="1628.06" cy="198.997" r="14"/>
<circle clip-path="url(#clip2503)" style="fill:#000000; stroke:none; fill-opacity:1" cx="1696.66" cy="187.88" r="18"/>
<circle clip-path="url(#clip2503)" style="fill:#e26f46; stroke:none; fill-opacity:1" cx="1696.66" cy="187.88" r="14"/>
<circle clip-path="url(#clip2503)" style="fill:#000000; stroke:none; fill-opacity:1" cx="1769.69" cy="176.38" r="18"/>
<circle clip-path="url(#clip2503)" style="fill:#e26f46; stroke:none; fill-opacity:1" cx="1769.69" cy="176.38" r="14"/>
<circle clip-path="url(#clip2503)" style="fill:#000000; stroke:none; fill-opacity:1" cx="1849.98" cy="162.415" r="18"/>
<circle clip-path="url(#clip2503)" style="fill:#e26f46; stroke:none; fill-opacity:1" cx="1849.98" cy="162.415" r="14"/>
<circle clip-path="url(#clip2503)" style="fill:#000000; stroke:none; fill-opacity:1" cx="1902.8" cy="162.884" r="18"/>
<circle clip-path="url(#clip2503)" style="fill:#e26f46; stroke:none; fill-opacity:1" cx="1902.8" cy="162.884" r="14"/>
<circle clip-path="url(#clip2503)" style="fill:#000000; stroke:none; fill-opacity:1" cx="1984.34" cy="171.109" r="18"/>
<circle clip-path="url(#clip2503)" style="fill:#e26f46; stroke:none; fill-opacity:1" cx="1984.34" cy="171.109" r="14"/>
<circle clip-path="url(#clip2503)" style="fill:#000000; stroke:none; fill-opacity:1" cx="2048.52" cy="178.296" r="18"/>
<circle clip-path="url(#clip2503)" style="fill:#e26f46; stroke:none; fill-opacity:1" cx="2048.52" cy="178.296" r="14"/>
<circle clip-path="url(#clip2503)" style="fill:#000000; stroke:none; fill-opacity:1" cx="2119.33" cy="187.88" r="18"/>
<circle clip-path="url(#clip2503)" style="fill:#e26f46; stroke:none; fill-opacity:1" cx="2119.33" cy="187.88" r="14"/>
<circle clip-path="url(#clip2503)" style="fill:#000000; stroke:none; fill-opacity:1" cx="2190.14" cy="197.464" r="18"/>
<circle clip-path="url(#clip2503)" style="fill:#e26f46; stroke:none; fill-opacity:1" cx="2190.14" cy="197.464" r="14"/>
<circle clip-path="url(#clip2503)" style="fill:#000000; stroke:none; fill-opacity:1" cx="2260.96" cy="202.064" r="18"/>
<circle clip-path="url(#clip2503)" style="fill:#e26f46; stroke:none; fill-opacity:1" cx="2260.96" cy="202.064" r="14"/>
<circle clip-path="url(#clip2503)" style="fill:#000000; stroke:none; fill-opacity:1" cx="643.761" cy="350.161" r="18"/>
<circle clip-path="url(#clip2503)" style="fill:#e26f46; stroke:none; fill-opacity:1" cx="643.761" cy="350.161" r="14"/>
<polygon clip-path="url(#clip2501)" points="
1805.94,963.861 2249.26,963.861 2249.26,782.421 1805.94,782.421 
  " fill="#ffffff" fill-rule="evenodd" fill-opacity="1"/>
<polyline clip-path="url(#clip2501)" style="stroke:#000000; stroke-width:4; stroke-opacity:1; fill:none" points="
  1805.94,963.861 2249.26,963.861 2249.26,782.421 1805.94,782.421 1805.94,963.861 
  "/>
<polyline clip-path="url(#clip2501)" style="stroke:#009af9; stroke-width:12; stroke-opacity:1; fill:none" points="
  1829.94,842.901 1973.94,842.901 
  "/>
<g clip-path="url(#clip2501)">
<text style="fill:#000000; fill-opacity:1; font-family:Arial,Helvetica Neue,Helvetica,sans-serif; font-size:48px; text-anchor:start;" transform="rotate(0, 1997.94, 860.401)" x="1997.94" y="860.401">SDOF</text>
</g>
<circle clip-path="url(#clip2501)" style="fill:#000000; stroke:none; fill-opacity:1" cx="1913.94" cy="903.381" r="25"/>
<circle clip-path="url(#clip2501)" style="fill:#e26f46; stroke:none; fill-opacity:1" cx="1913.94" cy="903.381" r="21"/>
<g clip-path="url(#clip2501)">
<text style="fill:#000000; fill-opacity:1; font-family:Arial,Helvetica Neue,Helvetica,sans-serif; font-size:48px; text-anchor:start;" transform="rotate(0, 1997.94, 920.881)" x="1997.94" y="920.881">validation</text>
</g>
</svg>
