<?xml version="1.0" encoding="utf-8"?>
<svg xmlns="http://www.w3.org/2000/svg" xmlns:xlink="http://www.w3.org/1999/xlink" width="600" height="400" viewBox="0 0 2400 1600">
<defs>
  <clipPath id="clip2700">
    <rect x="0" y="0" width="2000" height="2000"/>
  </clipPath>
</defs>
<defs>
  <clipPath id="clip2701">
    <rect x="0" y="0" width="2400" height="1600"/>
  </clipPath>
</defs>
<polygon clip-path="url(#clip2701)" points="
0,1600 2400,1600 2400,0 0,0 
  " fill="#ffffff" fill-rule="evenodd" fill-opacity="1"/>
<defs>
  <clipPath id="clip2702">
    <rect x="480" y="0" width="1681" height="1600"/>
  </clipPath>
</defs>
<polygon clip-path="url(#clip2701)" points="
161.394,1503.47 2321.26,1503.47 2321.26,47.2441 161.394,47.2441 
  " fill="#ffffff" fill-rule="evenodd" fill-opacity="1"/>
<defs>
  <clipPath id="clip2703">
    <rect x="161" y="47" width="2161" height="1457"/>
  </clipPath>
</defs>
<polyline clip-path="url(#clip2703)" style="stroke:#000000; stroke-width:2; stroke-opacity:0.1; fill:none" points="
  222.522,1503.47 222.522,47.2441 
  "/>
<polyline clip-path="url(#clip2703)" style="stroke:#000000; stroke-width:2; stroke-opacity:0.1; fill:none" points="
  747.008,1503.47 747.008,47.2441 
  "/>
<polyline clip-path="url(#clip2703)" style="stroke:#000000; stroke-width:2; stroke-opacity:0.1; fill:none" points="
  1271.49,1503.47 1271.49,47.2441 
  "/>
<polyline clip-path="url(#clip2703)" style="stroke:#000000; stroke-width:2; stroke-opacity:0.1; fill:none" points="
  1795.98,1503.47 1795.98,47.2441 
  "/>
<polyline clip-path="url(#clip2703)" style="stroke:#000000; stroke-width:2; stroke-opacity:0.1; fill:none" points="
  2320.46,1503.47 2320.46,47.2441 
  "/>
<polyline clip-path="url(#clip2703)" style="stroke:#000000; stroke-width:2; stroke-opacity:0.1; fill:none" points="
  161.394,1462.26 2321.26,1462.26 
  "/>
<polyline clip-path="url(#clip2703)" style="stroke:#000000; stroke-width:2; stroke-opacity:0.1; fill:none" points="
  161.394,1152 2321.26,1152 
  "/>
<polyline clip-path="url(#clip2703)" style="stroke:#000000; stroke-width:2; stroke-opacity:0.1; fill:none" points="
  161.394,841.742 2321.26,841.742 
  "/>
<polyline clip-path="url(#clip2703)" style="stroke:#000000; stroke-width:2; stroke-opacity:0.1; fill:none" points="
  161.394,531.482 2321.26,531.482 
  "/>
<polyline clip-path="url(#clip2703)" style="stroke:#000000; stroke-width:2; stroke-opacity:0.1; fill:none" points="
  161.394,221.222 2321.26,221.222 
  "/>
<polyline clip-path="url(#clip2701)" style="stroke:#000000; stroke-width:4; stroke-opacity:1; fill:none" points="
  161.394,1503.47 2321.26,1503.47 
  "/>
<polyline clip-path="url(#clip2701)" style="stroke:#000000; stroke-width:4; stroke-opacity:1; fill:none" points="
  161.394,1503.47 161.394,47.2441 
  "/>
<polyline clip-path="url(#clip2701)" style="stroke:#000000; stroke-width:4; stroke-opacity:1; fill:none" points="
  222.522,1503.47 222.522,1481.63 
  "/>
<polyline clip-path="url(#clip2701)" style="stroke:#000000; stroke-width:4; stroke-opacity:1; fill:none" points="
  747.008,1503.47 747.008,1481.63 
  "/>
<polyline clip-path="url(#clip2701)" style="stroke:#000000; stroke-width:4; stroke-opacity:1; fill:none" points="
  1271.49,1503.47 1271.49,1481.63 
  "/>
<polyline clip-path="url(#clip2701)" style="stroke:#000000; stroke-width:4; stroke-opacity:1; fill:none" points="
  1795.98,1503.47 1795.98,1481.63 
  "/>
<polyline clip-path="url(#clip2701)" style="stroke:#000000; stroke-width:4; stroke-opacity:1; fill:none" points="
  2320.46,1503.47 2320.46,1481.63 
  "/>
<polyline clip-path="url(#clip2701)" style="stroke:#000000; stroke-width:4; stroke-opacity:1; fill:none" points="
  161.394,1462.26 193.792,1462.26 
  "/>
<polyline clip-path="url(#clip2701)" style="stroke:#000000; stroke-width:4; stroke-opacity:1; fill:none" points="
  161.394,1152 193.792,1152 
  "/>
<polyline clip-path="url(#clip2701)" style="stroke:#000000; stroke-width:4; stroke-opacity:1; fill:none" points="
  161.394,841.742 193.792,841.742 
  "/>
<polyline clip-path="url(#clip2701)" style="stroke:#000000; stroke-width:4; stroke-opacity:1; fill:none" points="
  161.394,531.482 193.792,531.482 
  "/>
<polyline clip-path="url(#clip2701)" style="stroke:#000000; stroke-width:4; stroke-opacity:1; fill:none" points="
  161.394,221.222 193.792,221.222 
  "/>
<g clip-path="url(#clip2701)">
<text style="fill:#000000; fill-opacity:1; font-family:Arial,Helvetica Neue,Helvetica,sans-serif; font-size:48px; text-anchor:middle;" transform="rotate(0, 222.522, 1557.47)" x="222.522" y="1557.47">0.000</text>
</g>
<g clip-path="url(#clip2701)">
<text style="fill:#000000; fill-opacity:1; font-family:Arial,Helvetica Neue,Helvetica,sans-serif; font-size:48px; text-anchor:middle;" transform="rotate(0, 747.008, 1557.47)" x="747.008" y="1557.47">0.025</text>
</g>
<g clip-path="url(#clip2701)">
<text style="fill:#000000; fill-opacity:1; font-family:Arial,Helvetica Neue,Helvetica,sans-serif; font-size:48px; text-anchor:middle;" transform="rotate(0, 1271.49, 1557.47)" x="1271.49" y="1557.47">0.050</text>
</g>
<g clip-path="url(#clip2701)">
<text style="fill:#000000; fill-opacity:1; font-family:Arial,Helvetica Neue,Helvetica,sans-serif; font-size:48px; text-anchor:middle;" transform="rotate(0, 1795.98, 1557.47)" x="1795.98" y="1557.47">0.075</text>
</g>
<g clip-path="url(#clip2701)">
<text style="fill:#000000; fill-opacity:1; font-family:Arial,Helvetica Neue,Helvetica,sans-serif; font-size:48px; text-anchor:middle;" transform="rotate(0, 2320.46, 1557.47)" x="2320.46" y="1557.47">0.100</text>
</g>
<g clip-path="url(#clip2701)">
<text style="fill:#000000; fill-opacity:1; font-family:Arial,Helvetica Neue,Helvetica,sans-serif; font-size:48px; text-anchor:end;" transform="rotate(0, 137.394, 1479.76)" x="137.394" y="1479.76">0.0</text>
</g>
<g clip-path="url(#clip2701)">
<text style="fill:#000000; fill-opacity:1; font-family:Arial,Helvetica Neue,Helvetica,sans-serif; font-size:48px; text-anchor:end;" transform="rotate(0, 137.394, 1169.5)" x="137.394" y="1169.5">0.2</text>
</g>
<g clip-path="url(#clip2701)">
<text style="fill:#000000; fill-opacity:1; font-family:Arial,Helvetica Neue,Helvetica,sans-serif; font-size:48px; text-anchor:end;" transform="rotate(0, 137.394, 859.242)" x="137.394" y="859.242">0.4</text>
</g>
<g clip-path="url(#clip2701)">
<text style="fill:#000000; fill-opacity:1; font-family:Arial,Helvetica Neue,Helvetica,sans-serif; font-size:48px; text-anchor:end;" transform="rotate(0, 137.394, 548.982)" x="137.394" y="548.982">0.6</text>
</g>
<g clip-path="url(#clip2701)">
<text style="fill:#000000; fill-opacity:1; font-family:Arial,Helvetica Neue,Helvetica,sans-serif; font-size:48px; text-anchor:end;" transform="rotate(0, 137.394, 238.722)" x="137.394" y="238.722">0.8</text>
</g>
<polyline clip-path="url(#clip2703)" style="stroke:#009af9; stroke-width:8; stroke-opacity:1; fill:none" points="
  222.522,1462.26 224.62,1462.18 230.81,1461.07 241.184,1456.35 254.604,1445.42 271.601,1425.39 
  292.139,1395.97 316.482,1361.71 344.897,1335.06 375.723,1307.92 683.978,88.4582 
  
  "/>
<circle clip-path="url(#clip2703)" style="fill:#000000; stroke:none; fill-opacity:1" cx="304.794" cy="1374.5" r="18"/>
<circle clip-path="url(#clip2703)" style="fill:#e26f46; stroke:none; fill-opacity:1" cx="304.794" cy="1374.5" r="14"/>
<circle clip-path="url(#clip2703)" style="fill:#000000; stroke:none; fill-opacity:1" cx="322.507" cy="1337.79" r="18"/>
<circle clip-path="url(#clip2703)" style="fill:#e26f46; stroke:none; fill-opacity:1" cx="322.507" cy="1337.79" r="14"/>
<circle clip-path="url(#clip2703)" style="fill:#000000; stroke:none; fill-opacity:1" cx="338.322" cy="1301.28" r="18"/>
<circle clip-path="url(#clip2703)" style="fill:#e26f46; stroke:none; fill-opacity:1" cx="338.322" cy="1301.28" r="14"/>
<circle clip-path="url(#clip2703)" style="fill:#000000; stroke:none; fill-opacity:1" cx="355.542" cy="1257.36" r="18"/>
<circle clip-path="url(#clip2703)" style="fill:#e26f46; stroke:none; fill-opacity:1" cx="355.542" cy="1257.36" r="14"/>
<circle clip-path="url(#clip2703)" style="fill:#000000; stroke:none; fill-opacity:1" cx="371.849" cy="1216.24" r="18"/>
<circle clip-path="url(#clip2703)" style="fill:#e26f46; stroke:none; fill-opacity:1" cx="371.849" cy="1216.24" r="14"/>
<circle clip-path="url(#clip2703)" style="fill:#000000; stroke:none; fill-opacity:1" cx="388.929" cy="1172.72" r="18"/>
<circle clip-path="url(#clip2703)" style="fill:#e26f46; stroke:none; fill-opacity:1" cx="388.929" cy="1172.72" r="14"/>
<circle clip-path="url(#clip2703)" style="fill:#000000; stroke:none; fill-opacity:1" cx="402.846" cy="1132.6" r="18"/>
<circle clip-path="url(#clip2703)" style="fill:#e26f46; stroke:none; fill-opacity:1" cx="402.846" cy="1132.6" r="14"/>
<circle clip-path="url(#clip2703)" style="fill:#000000; stroke:none; fill-opacity:1" cx="418.028" cy="1093.27" r="18"/>
<circle clip-path="url(#clip2703)" style="fill:#e26f46; stroke:none; fill-opacity:1" cx="418.028" cy="1093.27" r="14"/>
<circle clip-path="url(#clip2703)" style="fill:#000000; stroke:none; fill-opacity:1" cx="431.804" cy="1051.47" r="18"/>
<circle clip-path="url(#clip2703)" style="fill:#e26f46; stroke:none; fill-opacity:1" cx="431.804" cy="1051.47" r="14"/>
<circle clip-path="url(#clip2703)" style="fill:#000000; stroke:none; fill-opacity:1" cx="449.025" cy="1007.84" r="18"/>
<circle clip-path="url(#clip2703)" style="fill:#e26f46; stroke:none; fill-opacity:1" cx="449.025" cy="1007.84" r="14"/>
<circle clip-path="url(#clip2703)" style="fill:#000000; stroke:none; fill-opacity:1" cx="462.309" cy="963.124" r="18"/>
<circle clip-path="url(#clip2703)" style="fill:#e26f46; stroke:none; fill-opacity:1" cx="462.309" cy="963.124" r="14"/>
<circle clip-path="url(#clip2703)" style="fill:#000000; stroke:none; fill-opacity:1" cx="478.124" cy="925.229" r="18"/>
<circle clip-path="url(#clip2703)" style="fill:#e26f46; stroke:none; fill-opacity:1" cx="478.124" cy="925.229" r="14"/>
<circle clip-path="url(#clip2703)" style="fill:#000000; stroke:none; fill-opacity:1" cx="499.063" cy="870.402" r="18"/>
<circle clip-path="url(#clip2703)" style="fill:#e26f46; stroke:none; fill-opacity:1" cx="499.063" cy="870.402" r="14"/>
<circle clip-path="url(#clip2703)" style="fill:#000000; stroke:none; fill-opacity:1" cx="514.814" cy="831.144" r="18"/>
<circle clip-path="url(#clip2703)" style="fill:#e26f46; stroke:none; fill-opacity:1" cx="514.814" cy="831.144" r="14"/>
<circle clip-path="url(#clip2703)" style="fill:#000000; stroke:none; fill-opacity:1" cx="533.159" cy="796.987" r="18"/>
<circle clip-path="url(#clip2703)" style="fill:#e26f46; stroke:none; fill-opacity:1" cx="533.159" cy="796.987" r="14"/>
<circle clip-path="url(#clip2703)" style="fill:#000000; stroke:none; fill-opacity:1" cx="549.396" cy="758.319" r="18"/>
<circle clip-path="url(#clip2703)" style="fill:#e26f46; stroke:none; fill-opacity:1" cx="549.396" cy="758.319" r="14"/>
<circle clip-path="url(#clip2703)" style="fill:#000000; stroke:none; fill-opacity:1" cx="573.013" cy="718.875" r="18"/>
<circle clip-path="url(#clip2703)" style="fill:#e26f46; stroke:none; fill-opacity:1" cx="573.013" cy="718.875" r="14"/>
<circle clip-path="url(#clip2703)" style="fill:#000000; stroke:none; fill-opacity:1" cx="599.581" cy="676.282" r="18"/>
<circle clip-path="url(#clip2703)" style="fill:#e26f46; stroke:none; fill-opacity:1" cx="599.581" cy="676.282" r="14"/>
<circle clip-path="url(#clip2703)" style="fill:#000000; stroke:none; fill-opacity:1" cx="681.502" cy="547.675" r="18"/>
<circle clip-path="url(#clip2703)" style="fill:#e26f46; stroke:none; fill-opacity:1" cx="681.502" cy="547.675" r="14"/>
<circle clip-path="url(#clip2703)" style="fill:#000000; stroke:none; fill-opacity:1" cx="730.211" cy="492.367" r="18"/>
<circle clip-path="url(#clip2703)" style="fill:#e26f46; stroke:none; fill-opacity:1" cx="730.211" cy="492.367" r="14"/>
<circle clip-path="url(#clip2703)" style="fill:#000000; stroke:none; fill-opacity:1" cx="792.205" cy="444.291" r="18"/>
<circle clip-path="url(#clip2703)" style="fill:#e26f46; stroke:none; fill-opacity:1" cx="792.205" cy="444.291" r="14"/>
<circle clip-path="url(#clip2703)" style="fill:#000000; stroke:none; fill-opacity:1" cx="851.985" cy="407.107" r="18"/>
<circle clip-path="url(#clip2703)" style="fill:#e26f46; stroke:none; fill-opacity:1" cx="851.985" cy="407.107" r="14"/>
<circle clip-path="url(#clip2703)" style="fill:#000000; stroke:none; fill-opacity:1" cx="920.621" cy="383.169" r="18"/>
<circle clip-path="url(#clip2703)" style="fill:#e26f46; stroke:none; fill-opacity:1" cx="920.621" cy="383.169" r="14"/>
<circle clip-path="url(#clip2703)" style="fill:#000000; stroke:none; fill-opacity:1" cx="993.685" cy="371.029" r="18"/>
<circle clip-path="url(#clip2703)" style="fill:#e26f46; stroke:none; fill-opacity:1" cx="993.685" cy="371.029" r="14"/>
<circle clip-path="url(#clip2703)" style="fill:#000000; stroke:none; fill-opacity:1" cx="1064.54" cy="374.433" r="18"/>
<circle clip-path="url(#clip2703)" style="fill:#e26f46; stroke:none; fill-opacity:1" cx="1064.54" cy="374.433" r="14"/>
<circle clip-path="url(#clip2703)" style="fill:#000000; stroke:none; fill-opacity:1" cx="1137.6" cy="387.139" r="18"/>
<circle clip-path="url(#clip2703)" style="fill:#e26f46; stroke:none; fill-opacity:1" cx="1137.6" cy="387.139" r="14"/>
<circle clip-path="url(#clip2703)" style="fill:#000000; stroke:none; fill-opacity:1" cx="1206.24" cy="409.149" r="18"/>
<circle clip-path="url(#clip2703)" style="fill:#e26f46; stroke:none; fill-opacity:1" cx="1206.24" cy="409.149" r="14"/>
<circle clip-path="url(#clip2703)" style="fill:#000000; stroke:none; fill-opacity:1" cx="1277.09" cy="430.592" r="18"/>
<circle clip-path="url(#clip2703)" style="fill:#e26f46; stroke:none; fill-opacity:1" cx="1277.09" cy="430.592" r="14"/>
<circle clip-path="url(#clip2703)" style="fill:#000000; stroke:none; fill-opacity:1" cx="1350.15" cy="449.822" r="18"/>
<circle clip-path="url(#clip2703)" style="fill:#e26f46; stroke:none; fill-opacity:1" cx="1350.15" cy="449.822" r="14"/>
<circle clip-path="url(#clip2703)" style="fill:#000000; stroke:none; fill-opacity:1" cx="1416.57" cy="464.287" r="18"/>
<circle clip-path="url(#clip2703)" style="fill:#e26f46; stroke:none; fill-opacity:1" cx="1416.57" cy="464.287" r="14"/>
<circle clip-path="url(#clip2703)" style="fill:#000000; stroke:none; fill-opacity:1" cx="1487.42" cy="473.08" r="18"/>
<circle clip-path="url(#clip2703)" style="fill:#e26f46; stroke:none; fill-opacity:1" cx="1487.42" cy="473.08" r="14"/>
<circle clip-path="url(#clip2703)" style="fill:#000000; stroke:none; fill-opacity:1" cx="1556.06" cy="475.859" r="18"/>
<circle clip-path="url(#clip2703)" style="fill:#e26f46; stroke:none; fill-opacity:1" cx="1556.06" cy="475.859" r="14"/>
<circle clip-path="url(#clip2703)" style="fill:#000000; stroke:none; fill-opacity:1" cx="1626.91" cy="470.754" r="18"/>
<circle clip-path="url(#clip2703)" style="fill:#e26f46; stroke:none; fill-opacity:1" cx="1626.91" cy="470.754" r="14"/>
<circle clip-path="url(#clip2703)" style="fill:#000000; stroke:none; fill-opacity:1" cx="1695.54" cy="460.884" r="18"/>
<circle clip-path="url(#clip2703)" style="fill:#e26f46; stroke:none; fill-opacity:1" cx="1695.54" cy="460.884" r="14"/>
<circle clip-path="url(#clip2703)" style="fill:#000000; stroke:none; fill-opacity:1" cx="1768.61" cy="450.673" r="18"/>
<circle clip-path="url(#clip2703)" style="fill:#e26f46; stroke:none; fill-opacity:1" cx="1768.61" cy="450.673" r="14"/>
<circle clip-path="url(#clip2703)" style="fill:#000000; stroke:none; fill-opacity:1" cx="1848.95" cy="438.274" r="18"/>
<circle clip-path="url(#clip2703)" style="fill:#e26f46; stroke:none; fill-opacity:1" cx="1848.95" cy="438.274" r="14"/>
<circle clip-path="url(#clip2703)" style="fill:#000000; stroke:none; fill-opacity:1" cx="1901.79" cy="438.691" r="18"/>
<circle clip-path="url(#clip2703)" style="fill:#e26f46; stroke:none; fill-opacity:1" cx="1901.79" cy="438.691" r="14"/>
<circle clip-path="url(#clip2703)" style="fill:#000000; stroke:none; fill-opacity:1" cx="1983.37" cy="445.993" r="18"/>
<circle clip-path="url(#clip2703)" style="fill:#e26f46; stroke:none; fill-opacity:1" cx="1983.37" cy="445.993" r="14"/>
<circle clip-path="url(#clip2703)" style="fill:#000000; stroke:none; fill-opacity:1" cx="2047.58" cy="452.375" r="18"/>
<circle clip-path="url(#clip2703)" style="fill:#e26f46; stroke:none; fill-opacity:1" cx="2047.58" cy="452.375" r="14"/>
<circle clip-path="url(#clip2703)" style="fill:#000000; stroke:none; fill-opacity:1" cx="2118.43" cy="460.884" r="18"/>
<circle clip-path="url(#clip2703)" style="fill:#e26f46; stroke:none; fill-opacity:1" cx="2118.43" cy="460.884" r="14"/>
<circle clip-path="url(#clip2703)" style="fill:#000000; stroke:none; fill-opacity:1" cx="2189.28" cy="469.393" r="18"/>
<circle clip-path="url(#clip2703)" style="fill:#e26f46; stroke:none; fill-opacity:1" cx="2189.28" cy="469.393" r="14"/>
<circle clip-path="url(#clip2703)" style="fill:#000000; stroke:none; fill-opacity:1" cx="2260.13" cy="473.477" r="18"/>
<circle clip-path="url(#clip2703)" style="fill:#e26f46; stroke:none; fill-opacity:1" cx="2260.13" cy="473.477" r="14"/>
<circle clip-path="url(#clip2703)" style="fill:#000000; stroke:none; fill-opacity:1" cx="642.111" cy="604.965" r="18"/>
<circle clip-path="url(#clip2703)" style="fill:#e26f46; stroke:none; fill-opacity:1" cx="642.111" cy="604.965" r="14"/>
<polygon clip-path="url(#clip2701)" points="
1805.94,932.365 2249.26,932.365 2249.26,750.925 1805.94,750.925 
  " fill="#ffffff" fill-rule="evenodd" fill-opacity="1"/>
<polyline clip-path="url(#clip2701)" style="stroke:#000000; stroke-width:4; stroke-opacity:1; fill:none" points="
  1805.94,932.365 2249.26,932.365 2249.26,750.925 1805.94,750.925 1805.94,932.365 
  "/>
<polyline clip-path="url(#clip2701)" style="stroke:#009af9; stroke-width:8; stroke-opacity:1; fill:none" points="
  1829.94,811.405 1973.94,811.405 
  "/>
<g clip-path="url(#clip2701)">
<text style="fill:#000000; fill-opacity:1; font-family:Arial,Helvetica Neue,Helvetica,sans-serif; font-size:48px; text-anchor:start;" transform="rotate(0, 1997.94, 828.905)" x="1997.94" y="828.905">SDOF</text>
</g>
<circle clip-path="url(#clip2701)" style="fill:#000000; stroke:none; fill-opacity:1" cx="1913.94" cy="871.885" r="25"/>
<circle clip-path="url(#clip2701)" style="fill:#e26f46; stroke:none; fill-opacity:1" cx="1913.94" cy="871.885" r="21"/>
<g clip-path="url(#clip2701)">
<text style="fill:#000000; fill-opacity:1; font-family:Arial,Helvetica Neue,Helvetica,sans-serif; font-size:48px; text-anchor:start;" transform="rotate(0, 1997.94, 889.385)" x="1997.94" y="889.385">validation</text>
</g>
</svg>
